<svg width="18" height="17" viewBox="0 0 18 17" fill="none" xmlns="http://www.w3.org/2000/svg">
<path d="M15.6666 4.00033H13.1666V2.33366C13.1666 1.40866 12.425 0.666992 11.5 0.666992H6.49996C5.57496 0.666992 4.83329 1.40866 4.83329 2.33366V4.00033H2.33329C1.40829 4.00033 0.666626 4.74199 0.666626 5.66699V14.8337C0.666626 15.7587 1.40829 16.5003 2.33329 16.5003H15.6666C16.5916 16.5003 17.3333 15.7587 17.3333 14.8337V5.66699C17.3333 4.74199 16.5916 4.00033 15.6666 4.00033ZM6.49996 2.33366H11.5V4.00033H6.49996V2.33366ZM15.6666 14.8337H2.33329V13.167H15.6666V14.8337ZM15.6666 10.667H2.33329V5.66699H4.83329V7.33366H6.49996V5.66699H11.5V7.33366H13.1666V5.66699H15.6666V10.667Z" fill="#2C4776"/>
</svg>
