<svg width="1979" height="1246" viewBox="0 0 1979 1246" fill="none" xmlns="http://www.w3.org/2000/svg">
<path d="M700.098 0.623871C690.448 1.50159 686.587 2.55487 683.429 5.53915C680.797 7.99683 677.287 9.40118 674.129 9.22565C671.146 9.22565 666.584 9.92783 663.601 10.9811C660.793 12.2099 655.354 13.4388 651.844 13.9654C648.16 14.492 645.177 15.8964 645.177 16.9497C645.177 18.1785 643.597 22.3916 641.492 26.6047C635.877 38.0153 627.63 40.9995 627.63 31.5201C627.63 26.9558 624.998 24.3226 623.243 27.1314C622.717 28.0091 617.979 30.8179 612.715 33.2755C604.117 37.4886 603.24 38.3664 601.485 46.0904C600.432 50.6546 599.204 60.3097 598.502 67.5071L597.449 80.6731L604.643 86.4661C608.504 89.6259 613.417 92.7858 615.698 93.6635L619.558 95.0679L615.347 97.35C613.066 98.5788 608.679 102.09 605.696 105.25C598.502 112.974 584.113 116.309 577.446 111.92L572.883 109.112L573.41 118.767C573.585 124.033 572.708 131.055 571.48 134.215C569.199 139.832 569.199 140.008 575.165 144.923C580.955 149.663 598.326 155.28 607.451 155.28C610.434 155.28 613.943 153.174 617.277 149.487C622.366 143.87 622.541 143.87 618.856 141.412C616.926 140.183 615.347 138.077 615.347 137.023C615.347 135.444 612.188 135.092 604.819 135.619C599.204 135.97 592.36 135.97 590.079 135.268C584.113 133.864 578.498 127.544 578.498 122.278C578.498 118.064 578.674 118.064 591.308 119.118C606.398 120.522 615.873 124.209 623.594 131.406C626.752 134.215 629.56 136.321 629.911 135.795C630.262 135.444 632.894 131.055 636.052 126.315C641.843 117.011 654.125 105.601 660.618 103.67C662.723 102.967 666.057 99.4565 667.812 95.7701C671.672 88.3971 683.253 77.3377 689.044 75.4066C691.325 74.7045 697.817 71.018 703.608 67.3315C709.398 63.4695 716.066 60.4852 718.347 60.4852C723.085 60.4852 722.909 60.1341 720.453 67.3315C718.873 71.7202 718.873 74.0023 720.628 77.1621C722.383 80.322 722.383 82.0774 720.453 86.115C718.523 90.1526 715.54 91.908 705.713 95.0679C699.045 97.1744 691.325 98.9299 688.868 98.9299C680.797 99.1054 679.218 103.319 683.604 112.271L687.465 120.171L683.955 125.086C681.323 128.948 680.621 131.757 681.499 136.497C682.551 143.87 684.131 144.572 700.274 146.503C713.96 148.083 720.628 151.945 722.734 159.844C724.488 166.34 725.015 207.066 723.436 214.439C722.383 219.004 722.909 220.759 725.717 223.217C730.103 226.903 730.805 236.909 726.77 238.489C722.558 240.069 723.26 250.251 727.647 251.304C732.385 252.533 732.034 254.464 726.243 262.188C711.153 282.025 709.925 289.924 717.119 319.416C725.366 352.946 725.366 353.121 735.017 358.388C739.579 360.845 743.439 363.654 743.439 364.532C743.439 365.234 745.018 365.936 746.948 365.936C749.405 365.936 751.862 363.127 755.02 356.632C757.652 351.717 763.793 341.886 768.707 334.864C773.62 327.842 779.761 319.065 782.218 315.379C785.727 310.288 789.412 307.655 796.957 304.846C803.274 302.388 810.819 297.648 816.083 292.558C823.453 285.536 828.015 283.078 842.053 278.514C855.915 273.95 874.339 265.172 878.375 261.31C878.901 260.959 876.62 258.326 873.637 255.693C867.495 250.251 866.092 245.336 871.18 247.442C878.375 250.426 879.427 249.549 879.954 239.543C880.129 234.276 881.533 227.43 882.937 224.27C884.34 221.286 885.569 217.95 885.569 216.897C885.569 215.844 887.499 213.737 889.955 212.157C892.412 210.577 894.342 208.471 894.342 207.418C894.342 206.364 895.57 204.082 897.15 202.502C902.414 196.709 903.291 178.979 898.729 168.271C896.272 162.302 896.272 161.951 901.01 159.318C905.397 156.86 905.748 155.631 906.099 144.923C906.099 138.252 907.678 130.002 909.608 125.437C914.17 114.202 925.4 98.0522 935.226 88.5726C939.789 84.184 943.473 79.2687 943.473 77.8643C943.473 74.88 939.262 72.4224 928.91 69.2625C922.768 67.3315 921.891 67.5071 915.048 72.5979C906.45 78.9176 902.063 79.7953 904.87 74.7045C906.8 70.8424 904.695 68.5603 898.729 68.3848C896.448 68.3848 895.044 66.9804 894.693 64.1717C893.991 60.1341 893.816 59.9586 879.954 61.1874C870.478 61.8896 866.443 61.714 867.145 60.4852C867.671 59.6075 870.478 58.7297 873.286 58.7297C876.093 58.7297 881.884 57.6765 885.92 56.2721C890.131 55.0433 896.799 53.1122 900.835 51.8834C910.661 49.2502 911.538 47.1437 904.519 43.6328C895.921 39.2441 888.903 32.2222 889.955 28.7113C890.657 26.4292 888.025 24.8493 877.322 20.9872C862.231 15.7209 863.986 15.5453 839.07 24.1471C830.472 27.1314 826.611 29.4135 826.085 31.6956C825.734 33.451 823.628 36.7864 821.347 38.893C819.066 40.9995 817.136 43.9839 817.136 45.5638C817.136 48.548 812.749 49.2502 810.995 46.4415C810.468 45.3882 808.012 44.686 805.73 44.686C802.923 44.686 801.344 45.9149 800.642 49.0747C799.063 55.2188 796.782 54.5166 791.518 46.2659L786.955 39.0685L777.129 40.1218C761.512 41.7018 757.126 38.0153 755.195 21.3383C755.02 19.5829 751.335 15.8964 746.948 13.0877C742.562 10.2789 738 7.11908 736.947 6.0658C730.981 1.15051 718.698 -0.780518 700.098 0.623871ZM748.352 49.4258C747.65 55.5699 744.492 56.4476 742.035 51.0057C739.93 46.2659 740.807 44.686 745.545 44.686C748.177 44.686 748.879 45.7393 748.352 49.4258Z" fill="#F3F6F8"/>
<path d="M1361.26 30.2913C1359.51 34.5044 1359.86 36.4354 1364.42 45.3883L1369.69 55.7455L1382.5 59.0809C1389.52 60.8363 1400.39 62.7674 1406.54 63.1185C1413.73 63.6451 1418.82 64.8739 1420.92 66.8049C1423.56 69.2626 1425.14 69.4381 1428.29 68.0338C1430.4 66.9805 1433.73 65.5761 1435.66 64.8739C1438.65 63.8206 1437.94 63.1185 1431.28 60.1342C1427.07 58.3787 1420.75 56.6232 1417.24 56.2721C1408.29 55.3944 1405.13 53.6389 1402.15 48.0215C1400.57 44.6861 1398.29 42.9306 1395.66 42.9306C1390.92 42.9306 1381.27 37.1376 1374.42 30.4668C1368.11 23.9716 1363.9 23.9716 1361.26 30.2913Z" fill="#F3F6F8"/>
<path d="M553.757 50.3031C553.055 58.2027 554.635 65.4001 557.618 68.3844C560.952 71.7198 560.952 71.7198 560.952 62.7669C560.952 56.7983 560.074 52.7607 558.144 51.0053C554.81 47.6699 553.933 47.4943 553.757 50.3031Z" fill="#F3F6F8"/>
<path d="M1628.85 51.5321C1628.15 52.5854 1625.35 53.4631 1622.54 53.4631C1615.17 53.4631 1613.76 59.4317 1619.91 65.0492C1622.36 67.3313 1625.52 69.2623 1626.75 69.2623C1628.15 69.2623 1629.73 70.4911 1630.26 72.071C1631.49 75.4064 1637.45 74.002 1643.07 68.7356C1645.17 66.8046 1648.86 64.347 1650.96 63.2937C1653.42 62.0649 1655.17 59.4317 1655.53 56.4474C1656.05 51.8832 1655.7 51.7076 1648.33 51.7076C1643.94 51.7076 1638.15 51.181 1635.17 50.6543C1632.19 49.9522 1629.56 50.4788 1628.85 51.5321Z" fill="#F3F6F8"/>
<path d="M1671.67 51.7079C1671.67 52.5856 1673.6 53.4634 1676.06 53.4634C1678.51 53.4634 1680.44 52.5856 1680.44 51.7079C1680.44 50.6546 1678.51 49.9524 1676.06 49.9524C1673.6 49.9524 1671.67 50.6546 1671.67 51.7079Z" fill="#F3F6F8"/>
<path d="M467.076 63.8207C457.25 66.2783 444.089 74.1779 441.984 78.9177C439.001 85.4129 439.001 85.4129 447.95 84.0085C455.67 82.9552 456.021 82.9552 454.091 86.4662C451.108 92.0837 451.81 96.999 455.846 98.2278C459.004 99.2811 459.355 100.51 458.829 109.638C458.653 115.256 458.829 120.347 459.355 120.873C459.882 121.4 463.04 121.049 466.374 119.996C469.708 118.942 478.832 117.889 486.553 117.713C495.151 117.538 501.994 116.485 503.573 115.256C506.732 112.623 505.679 107.532 501.292 103.494C498.309 100.861 497.783 100.861 493.396 103.67C489.185 106.478 488.307 106.478 482.868 103.845C479.359 102.09 477.077 99.9832 477.604 98.7544C478.13 97.5256 476.902 92.0837 474.972 86.8173C470.585 74.8801 470.585 72.4225 474.972 68.3849C481.464 62.5919 478.832 61.0119 467.076 63.8207Z" fill="#F3F6F8"/>
<path d="M1213.87 66.8046C1213.87 68.7357 1214.4 69.2623 1214.92 67.8579C1215.45 66.6291 1215.27 65.0492 1214.75 64.5225C1214.22 63.8204 1213.7 64.8736 1213.87 66.8046Z" fill="#F3F6F8"/>
<path d="M1437.76 94.4996C1436.71 97.2795 1436.89 100.581 1437.93 104.055C1439.49 108.399 1439.15 110.484 1435.67 117.433C1431.85 124.557 1430.11 125.947 1421.6 129.074C1416.04 130.985 1411.7 133.591 1411.7 134.634C1411.7 135.85 1408.4 140.367 1404.4 144.537C1400.24 148.88 1395.2 154.614 1393.11 157.568L1389.12 162.78L1393.46 165.907C1401.1 171.641 1398.15 177.721 1385.12 183.107C1381.47 184.671 1378.17 186.93 1377.48 188.32C1376.09 192.142 1381.65 202.566 1385.64 203.609C1387.55 204.13 1389.12 205.867 1389.12 207.431C1389.12 209.69 1388.25 210.037 1386.16 209.169C1379.56 206.215 1371.75 206.041 1371.75 208.647C1371.75 210.037 1369.66 213.512 1367.23 216.118C1363.41 220.288 1362.19 220.635 1359.59 219.072C1357.15 217.508 1355.94 217.682 1354.2 219.767C1352.46 221.852 1352.46 223.242 1354.72 227.064C1356.29 229.67 1358.02 234.708 1358.72 238.357C1359.59 242.874 1362.02 246.523 1367.06 250.866C1370.88 254.167 1374.87 256.947 1375.57 256.947C1377.48 256.947 1375.39 277.275 1373.31 281.618C1370.36 287.004 1367.06 283.182 1366.19 273.8C1365.67 267.198 1363.93 262.681 1359.93 257.121C1356.81 252.951 1354.38 247.913 1354.38 246.002C1354.38 243.917 1352.99 240.789 1351.07 238.878C1349.34 236.793 1345.34 228.975 1342.39 221.33C1337 207.605 1331.45 199.613 1327.45 199.613C1326.06 199.613 1325.02 205.694 1324.32 217.856C1323.45 234.708 1323.63 236.62 1327.28 243.222C1329.53 247.044 1334.22 252.082 1337.7 254.515C1352.81 264.766 1336.48 272.584 1319.81 262.854C1315.46 260.596 1310.95 259.032 1309.73 259.38C1308.34 259.901 1303.48 258.511 1298.79 256.078C1286.98 250.171 1286.28 250.693 1294.97 258.685C1303.83 266.677 1304.17 271.541 1296.18 272.063C1293.23 272.236 1286.28 273.279 1280.55 274.321C1274.82 275.364 1268.21 275.885 1265.78 275.364C1260.57 274.321 1245.46 283.008 1239.73 290.305C1234.51 297.081 1228.61 296.734 1226.52 289.61C1225.48 286.483 1223.57 283.703 1222.01 283.356C1219.75 282.835 1218.88 284.919 1218.01 294.128C1217.32 300.382 1215.93 305.595 1215.06 305.595C1214.19 305.595 1213.84 304.205 1214.36 302.467C1215.06 300.209 1212.63 297.95 1204.46 293.085C1190.04 284.572 1170.59 276.059 1165.9 276.059C1159.65 276.059 1144.88 268.414 1139.32 262.507C1134.46 257.295 1133.24 256.947 1122.64 256.947C1107.88 256.947 1093.29 262.854 1076.26 275.711C1067.06 282.661 1064.97 285.788 1067.75 289.089C1069.32 290.827 1068.27 294.301 1063.58 304.205C1060.28 311.154 1057.16 319.32 1056.46 322.447C1055.24 328.355 1038.05 347.466 1025.71 356.674C1019.46 361.365 1019.11 362.06 1019.11 371.442C1019.11 382.909 1023.46 397.503 1027.28 398.893C1028.84 399.415 1032.14 398.72 1034.75 396.982C1037.53 395.419 1042.39 394.202 1045.86 394.202C1051.25 394.202 1052.81 395.245 1057.33 401.5C1063.76 410.187 1063.76 413.661 1058.02 421.306C1053.51 427.213 1046.56 429.298 1044.3 425.476C1041.52 420.958 1039.61 424.086 1040.65 431.383C1041.7 437.985 1041.35 439.549 1038.05 442.676C1034.05 446.498 1025.54 448.931 1022.59 447.193C1021.72 446.672 1018.07 450.494 1014.77 455.88C1011.3 461.093 1007.65 465.436 1006.43 465.436C1005.22 465.436 1003.48 467 1002.61 469.085C1000.7 472.907 998.267 474.471 982.286 481.941C976.901 484.548 972.037 486.98 971.516 487.501C970.995 488.022 974.643 492.192 979.506 496.883C988.366 505.049 988.366 505.223 987.15 513.562C985.413 526.072 983.676 527.114 963.699 527.114C953.102 527.114 945.806 527.809 944.243 529.199C942.332 530.763 941.811 535.106 941.985 546.573C942.332 562.21 944.938 571.418 948.933 571.418C952.234 571.418 956.577 578.541 956.577 584.101C956.577 591.919 950.149 602.517 943.548 605.645C938.684 607.903 937.295 609.815 936.6 614.679C934.168 629.969 932.257 633.791 924.093 639.524C907.764 651.339 899.252 660.373 893.867 672.014C889.871 680.527 888.829 684.871 889.698 688.693C892.477 701.55 892.477 714.233 889.698 722.92C885.876 734.56 888.134 740.641 900.294 752.456C905.505 757.494 910.717 764.444 911.933 767.919C913.496 772.783 917.665 776.953 928.262 784.945C935.905 790.679 943.548 795.543 945.285 795.543C946.849 795.543 952.06 794.327 956.924 792.59C964.394 790.157 966.999 790.157 974.121 791.895C981.765 793.98 983.154 793.806 988.366 790.679C1004 781.47 1018.07 781.818 1027.28 791.547C1032.14 796.76 1033.7 797.281 1042.39 797.281C1050.21 797.281 1052.47 797.976 1054.55 801.103C1058.02 805.968 1058.02 813.091 1054.72 824.037C1053.33 828.728 1052.12 833.593 1052.12 834.809C1052.12 836.199 1056.11 841.585 1060.98 846.971C1071.57 858.785 1075.22 866.256 1079.04 885.889C1082.34 901.873 1082.34 901.873 1073.48 918.031C1069.49 925.328 1068.27 943.744 1071.57 948.783C1076.26 955.906 1084.6 980.403 1086.69 992.392C1088.6 1003.86 1090.51 1008.72 1095.02 1014.63C1099.02 1019.5 1104.23 1037.39 1104.23 1045.73C1104.23 1052.68 1104.93 1054.42 1108.75 1057.02C1112.74 1059.63 1113.79 1059.63 1121.08 1057.2C1125.6 1055.63 1132.37 1054.42 1136.37 1054.42C1143.49 1054.42 1163.12 1047.81 1167.98 1043.82C1173.72 1038.95 1193 1012.2 1196.47 1004.03C1198.73 998.994 1203.07 992.913 1207.07 989.612C1214.02 983.878 1214.02 983.878 1213.84 971.369C1213.84 959.207 1214.02 958.512 1220.27 951.563C1223.74 947.566 1230.69 941.833 1235.73 938.706C1249.11 930.019 1251.54 925.501 1252.23 908.996C1252.58 897.529 1252.06 894.228 1249.63 891.622C1247.02 888.495 1245.28 882.414 1242.16 865.908C1241.46 861.739 1242.68 858.785 1247.54 852.009C1257.97 837.589 1276.03 818.303 1286.45 810.659C1291.84 806.837 1297.22 802.319 1298.27 800.929C1304.69 792.937 1317.72 767.571 1318.76 761.143L1319.98 753.672L1310.6 755.062C1293.75 757.494 1284.54 756.799 1278.46 752.456C1275.34 750.197 1272.73 747.417 1272.73 746.201C1272.73 744.985 1276.38 742.552 1281.07 740.989C1285.59 739.251 1294.79 735.777 1301.39 732.997C1308.17 730.217 1315.29 727.611 1317.37 726.916C1319.29 726.395 1324.5 723.267 1328.67 719.966C1332.66 716.665 1337.53 713.885 1339.44 713.885C1347.25 713.885 1368.27 687.477 1368.27 677.747C1368.27 673.577 1364.97 670.45 1360.46 670.45C1354.55 670.45 1349.51 665.759 1348.82 659.504L1348.3 653.945L1341.69 660.373C1334.92 667.149 1329.36 668.539 1322.76 665.064C1317.03 661.937 1297.05 640.74 1296.01 636.571C1294.1 628.752 1295.83 622.671 1300.35 622.15C1303.48 621.629 1306.6 623.54 1312.68 629.969C1326.93 644.389 1330.58 646.474 1339.96 645.084C1347.43 644.042 1348.3 644.215 1351.94 648.906C1355.24 653.076 1357.68 653.945 1367.75 654.987C1374.18 655.856 1387.73 656.377 1397.46 656.377L1415.52 656.551L1424.38 665.933C1429.42 670.971 1435.15 677.747 1437.41 680.701C1440.71 685.044 1442.62 686.087 1448.18 686.087C1456 686.087 1457.21 687.65 1460.17 701.202C1462.08 710.758 1474.93 739.773 1480.84 748.112C1482.75 750.892 1485.18 755.931 1486.22 759.405C1489.18 768.44 1492.13 770.351 1498.56 767.745C1501.34 766.529 1503.77 764.444 1503.77 763.228C1503.77 761.838 1504.98 760.795 1506.55 760.795C1509.15 760.795 1509.33 758.884 1508.11 743.247L1506.89 725.873L1515.41 717.708C1535.04 698.596 1551.36 684.002 1556.23 681.569C1559.01 680.18 1565.61 678.79 1570.99 678.616C1578.98 678.268 1580.89 678.79 1582.63 681.743C1583.67 683.654 1585.24 685.739 1586.28 686.434C1587.15 687.129 1589.58 690.778 1591.49 694.426C1596.36 703.982 1603.13 716.318 1603.82 717.013C1604 717.36 1607.13 716.839 1610.6 715.623C1615.29 714.059 1617.37 714.059 1619.29 715.623C1622.76 718.576 1628.67 737.34 1630.06 750.371L1631.27 761.664L1632.49 752.282C1633.18 746.549 1635.09 741.684 1637.18 739.425L1640.83 735.95L1649.51 743.247C1654.37 747.243 1660.8 753.846 1663.93 757.842C1667.06 761.838 1670.36 765.66 1671.22 766.355C1672.27 767.05 1675.74 764.618 1679.22 761.143C1682.69 757.668 1687.55 752.977 1690.16 750.892C1699.37 743.595 1694.85 725.178 1680.26 710.932C1668.79 699.812 1667.75 694.6 1675.39 686.434C1685.47 675.662 1696.41 678.095 1693.98 690.604C1693.46 693.558 1693.63 696.337 1694.33 697.032C1696.59 699.465 1701.8 692.515 1701.8 686.782C1701.8 681.743 1702.84 680.527 1711 675.836C1715.87 673.056 1722.47 670.103 1725.25 669.581C1738.45 666.454 1750.44 654.813 1753.04 642.652C1753.74 639.35 1756.17 631.88 1758.6 626.32C1762.25 617.459 1762.6 615.722 1760.34 614.158C1759.12 613.116 1757.39 608.598 1756.69 604.255C1756 599.738 1754.09 594.873 1752.17 593.135C1750.44 591.572 1748.18 588.097 1746.96 585.491C1745.92 582.711 1743.14 579.757 1740.71 578.715C1734.28 575.588 1735.15 567.769 1742.62 560.298C1745.92 556.824 1748.7 553.696 1748.7 553.001C1748.7 552.306 1745.23 552.306 1741.06 552.654C1733.24 553.523 1730.46 551.959 1725.42 543.967C1723.86 541.187 1739.49 517.558 1743.14 517.558C1745.23 517.558 1745.57 519.296 1744.88 526.245C1744.36 530.936 1744.53 534.932 1745.23 534.932C1745.92 534.932 1748.53 533.369 1750.96 531.458C1753.39 529.546 1756.34 527.983 1757.39 527.983C1759.82 527.983 1776.84 544.662 1779.45 549.7C1780.49 551.611 1781.71 556.129 1782.4 559.604C1783.79 567.422 1784.83 568.117 1791.43 566.379C1796.12 565.163 1796.47 564.642 1795.78 557.519C1795.43 552.133 1793.17 546.747 1788.31 539.623C1782.75 531.458 1781.71 528.504 1782.57 524.508C1783.27 521.554 1784.48 518.948 1785.35 518.427C1786.22 517.732 1786.92 514.431 1786.92 510.782C1786.92 506.786 1788.48 501.922 1790.91 498.273C1794.39 493.061 1795.95 492.366 1803.07 491.845C1811.06 491.323 1811.24 491.15 1815.41 482.289C1820.79 470.301 1825.13 455.707 1826.87 443.371C1828.09 434.51 1827.74 432.425 1824.26 426.171L1820.1 419.221L1824.61 410.187C1829.82 399.415 1834.69 398.025 1836.42 406.712C1837.12 409.839 1838.68 415.746 1840.25 419.742C1842.85 426.866 1842.85 426.866 1846.33 423.391C1849.45 420.263 1849.45 419.742 1846.85 416.267C1845.46 414.183 1842.33 410.013 1840.07 406.885C1837.81 403.758 1834.86 397.677 1833.64 393.334C1830.69 383.257 1825.48 378.392 1816.97 377.697C1800.81 376.307 1794.04 374.57 1790.22 370.574C1788.13 368.315 1784.31 366.404 1782.05 366.404C1778.06 366.404 1777.88 366.056 1778.75 358.933C1779.45 354.937 1781.36 346.945 1783.09 341.211C1785.01 335.478 1787.44 326.27 1788.83 320.536C1791.43 308.722 1794.73 305.942 1812.97 300.382C1819.05 298.297 1825.48 295.518 1827.22 294.128C1829.82 291.695 1831.56 291.522 1841.64 293.606C1854.66 296.213 1857.27 294.823 1855.36 286.136C1854.32 280.923 1857.62 262.681 1860.22 259.206C1861.09 257.99 1864.74 256.252 1868.04 255.036C1873.77 253.125 1874.47 253.299 1877.42 257.121C1880.2 260.596 1880.89 260.943 1882.46 258.685C1883.33 257.295 1884.19 255.21 1884.19 253.994C1884.19 252.951 1885.93 250.693 1888.02 249.303C1891.49 246.87 1891.49 246.175 1889.41 242.179C1888.19 239.747 1887.5 237.314 1888.19 236.793C1889.58 235.403 1896.35 246.696 1895.31 248.608C1894.79 249.476 1895.14 251.214 1896.18 252.43C1897.57 254.167 1897.74 257.99 1896.53 265.808C1895.66 271.889 1894.44 282.313 1893.75 288.742C1893.05 295.17 1891.14 305.768 1889.23 312.023C1886.28 322.795 1886.11 324.011 1888.89 332.177C1891.84 341.385 1901.39 360.497 1907.12 368.489C1908.86 371.095 1911.99 376.828 1914.07 381.346C1917.55 389.511 1917.72 389.511 1919.81 385.342C1921.02 383.083 1922.58 374.57 1923.28 366.404C1923.97 358.412 1925.54 349.551 1926.93 347.119C1929.01 342.949 1928.84 341.385 1925.54 333.393C1922.24 325.401 1922.06 324.185 1924.5 321.752C1926.93 319.32 1926.75 318.278 1922.93 310.633C1920.5 305.942 1917.37 302.12 1916.16 302.12C1912.51 302.12 1909.04 295.17 1907.82 285.788C1906.95 279.012 1907.47 276.059 1910.6 270.673C1912.68 267.024 1915.81 263.376 1917.72 262.854C1919.63 262.333 1922.93 259.727 1925.02 257.295C1929.01 252.777 1929.01 252.604 1935.27 255.557C1938.57 257.295 1941.69 257.99 1942.04 257.295C1942.56 256.6 1943.43 251.561 1944.13 246.002C1946.04 230.017 1950.9 220.983 1960.8 214.902C1968.27 210.211 1972.09 204.825 1967.75 204.825C1965.67 204.825 1949.51 189.188 1946.21 183.976C1943.6 179.98 1943.6 178.764 1946.04 171.814C1947.77 167.123 1948.29 161.39 1947.77 157.568C1946.38 149.575 1949.51 147.491 1962.36 147.491C1967.23 147.491 1972.79 146.622 1974.52 145.753C1977.83 144.016 1977.83 143.842 1974.52 138.282C1972.61 135.329 1971.05 130.811 1971.05 128.553C1971.05 126.294 1970.18 121.429 1969.14 117.955C1967.23 111.874 1966.53 111.179 1959.93 110.484C1955.59 109.963 1952.29 110.484 1951.25 111.874C1950.03 113.437 1946.56 113.264 1935.61 110.831C1927.8 109.094 1915.64 107.356 1908.51 107.009C1901.39 106.488 1891.66 105.098 1887.15 104.055C1880.37 102.318 1876.03 102.318 1866.3 103.882C1846.5 107.356 1847.19 106.835 1850.67 112.742C1853.1 116.912 1853.27 118.65 1851.54 122.298C1849.8 125.947 1848.76 126.468 1844.76 125.599C1841.98 124.904 1838.51 123.167 1836.77 121.777C1833.99 119.345 1833.47 119.518 1829.82 122.819C1827.56 124.904 1822.01 127.337 1817.14 128.205C1812.45 129.074 1806.37 130.638 1803.77 131.68C1800.99 132.723 1796.3 133.591 1793 133.591C1788.31 133.591 1786.57 132.549 1783.62 127.51C1781.18 123.167 1778.93 121.429 1775.8 121.429C1773.37 121.429 1771.11 120.734 1770.41 119.866C1769.2 117.781 1761.55 119.866 1753.91 124.731C1746.79 129.074 1743.14 129.248 1736.89 125.947C1734.28 124.557 1730.11 122.993 1727.33 122.298C1724.73 121.777 1721.08 119.866 1719.34 118.128C1714.31 113.09 1711.18 112.742 1688.94 115.001C1668.27 117.086 1668.1 117.26 1666.88 122.124C1666.01 124.904 1666.36 128.727 1667.58 131.333C1669.49 135.502 1668.97 136.371 1661.15 143.495C1653.85 149.923 1651.6 151.139 1646.38 150.618C1640.48 150.097 1640.3 150.27 1640.3 156.178C1640.13 161.564 1639.44 162.258 1635.44 162.78C1631.79 163.301 1628.67 161.39 1621.72 154.961C1616.68 150.444 1611.64 144.016 1610.25 140.888C1606.78 132.375 1596.88 129.422 1579.85 131.68C1578.98 131.854 1578.46 133.939 1578.46 136.371C1578.46 144.884 1575.68 147.491 1566.48 147.491C1560.74 147.491 1556.75 146.448 1553.62 144.016L1549.11 140.367L1536.25 144.884C1526 148.359 1522.35 148.88 1518.71 147.491C1511.41 144.711 1508.98 145.406 1508.98 149.923C1508.98 154.266 1504.46 159.305 1502.55 157.22C1501.86 156.525 1502.38 150.792 1503.59 144.363C1507.94 122.472 1507.94 118.65 1503.77 111.352C1500.99 106.488 1497.34 103.36 1491.61 100.581C1483.96 96.932 1483.1 96.932 1478.06 99.5381C1475.1 101.102 1471.46 102.318 1469.89 102.318C1466.59 102.318 1450.61 94.3259 1449.05 91.8935C1446.79 88.4187 1439.49 89.9824 1437.76 94.4996ZM1498.38 220.288C1501.16 222.025 1499.42 225.674 1495.95 225.674C1493.52 225.674 1491.26 221.504 1492.82 219.767C1494.21 218.377 1495.43 218.55 1498.38 220.288ZM1537.47 256.947C1542.85 258.858 1543.2 262.159 1538.51 266.503C1535.38 269.283 1534.17 269.457 1528.09 267.545C1524.27 266.503 1521.14 264.939 1521.14 264.244C1521.14 263.376 1530.69 256.078 1532.78 255.384C1532.95 255.21 1535.04 255.905 1537.47 256.947ZM1476.67 286.657C1476.15 287.699 1476.49 289.437 1477.54 290.653C1480.32 293.954 1467.46 311.502 1464.33 308.374C1462.42 306.637 1467.81 286.483 1470.41 284.919C1473.72 283.008 1478.06 284.398 1476.67 286.657ZM1199.77 315.498C1199.77 317.235 1200.29 320.536 1200.99 322.795C1201.86 326.27 1201.51 326.791 1199.08 325.922C1197.34 325.227 1193 324.185 1189.18 323.664C1181.53 322.447 1180.32 324.706 1185.35 330.266C1189.52 334.957 1187.09 335.825 1181.88 331.482C1179.27 329.571 1177.19 326.443 1177.19 324.532C1177.19 322.795 1176.5 321.231 1175.45 321.231C1172.5 321.231 1173.54 314.629 1176.84 313.76C1178.41 313.239 1184.31 312.892 1189.87 312.718C1198.21 312.544 1199.77 313.065 1199.77 315.498ZM1488.13 317.409C1488.13 318.278 1485.87 320.884 1483.27 323.49C1478.41 328.181 1478.23 328.181 1475.28 324.88C1470.41 319.668 1472.85 316.019 1481.18 316.019C1485.01 316.019 1488.13 316.714 1488.13 317.409ZM1472.5 332.351C1472.5 335.825 1464.33 342.601 1461.38 341.559C1457.56 339.995 1457.91 335.13 1462.25 330.613C1465.2 327.486 1466.77 326.965 1469.2 328.355C1471.11 329.223 1472.5 331.134 1472.5 332.351ZM1112.92 334.957C1112.92 339.3 1109.27 345.555 1106.66 345.555C1103.54 345.555 1103.71 350.42 1107.36 367.794C1109.96 379.434 1110.31 379.608 1132.89 377.697L1145.05 376.655L1140.19 380.998C1137.58 383.43 1134.11 385.515 1132.55 385.515C1128.2 385.515 1114.48 392.986 1115.17 394.897C1115.52 395.94 1118.13 397.156 1120.91 397.677C1125.08 398.372 1125.95 399.415 1125.95 403.758C1125.95 408.449 1125.42 408.97 1120.56 408.797C1116.22 408.623 1114.65 409.492 1113.09 412.793C1112.05 415.051 1111.53 417.831 1112.05 418.7C1115 423.391 1103.54 432.425 1094.68 432.425C1092.25 432.425 1086.34 434.336 1081.65 436.769C1076.96 439.201 1072.27 441.112 1071.23 441.112C1070.18 441.112 1068.62 439.201 1067.75 436.769C1066.88 434.336 1065.32 432.425 1064.28 432.425C1060.28 432.425 1063.06 428.777 1072.79 421.132C1082.17 413.661 1083.04 412.619 1083.91 404.453C1084.6 398.72 1086.51 393.855 1089.47 390.554C1094.85 383.952 1094.85 382.909 1089.47 376.481C1086.17 372.485 1085.12 369.357 1085.12 362.582C1085.12 354.242 1085.47 353.547 1094.85 344.86C1105.97 334.609 1112.92 330.961 1112.92 334.957ZM1421.25 345.555C1421.78 346.424 1421.08 347.292 1419.52 347.292C1417.95 347.292 1417.26 346.424 1417.78 345.555C1418.3 344.513 1419.17 343.818 1419.52 343.818C1419.86 343.818 1420.73 344.513 1421.25 345.555ZM1700.06 371.616C1702.15 373.006 1701.1 374.743 1694.33 381.519C1689.81 386.21 1686.16 390.901 1686.16 392.117C1686.16 393.16 1688.07 395.419 1690.51 396.982C1695.72 400.457 1696.07 402.889 1691.38 402.889C1686.69 402.889 1667.75 384.994 1669.49 382.214C1670.36 380.824 1672.96 380.303 1675.91 380.651C1679.91 381.346 1680.95 380.824 1680.95 378.392C1680.95 374.396 1685.3 372.137 1696.59 370.052C1697.11 370.052 1698.67 370.747 1700.06 371.616ZM1597.74 381.519C1596.88 383.257 1593.4 387.253 1590.1 390.554C1584.54 395.766 1583.33 396.114 1576.9 395.071C1572.9 394.376 1569.78 393.334 1569.78 392.465C1569.78 391.423 1596.18 378.913 1598.96 378.566C1599.13 378.566 1598.61 379.956 1597.74 381.519ZM1414.83 387.948C1416.56 391.77 1416.04 392.986 1411.87 397.503C1407.01 402.716 1400.76 404.453 1398.85 401.5C1397.63 399.588 1408.57 383.778 1411.01 383.778C1412.05 383.778 1413.78 385.689 1414.83 387.948ZM1572.56 397.851C1579.51 399.588 1580.2 400.283 1577.94 402.368C1575.86 404.453 1574.12 404.453 1567.87 402.889C1556.4 399.936 1555.53 399.588 1556.75 397.677C1558.14 395.419 1563 395.419 1572.56 397.851ZM1548.41 408.275C1552.06 410.187 1556.58 413.314 1558.49 415.225C1561.61 418.179 1560.57 418.179 1548.93 414.009C1533.99 408.797 1533.3 408.449 1536.77 406.364C1540.42 404.106 1541.11 404.106 1548.41 408.275ZM1390.68 435.9C1393.98 440.417 1395.02 440.939 1397.98 439.201C1403.71 436.248 1403.71 438.68 1398.15 442.676C1391.55 447.367 1389.99 447.193 1384.6 441.981C1381.13 438.506 1380.61 437.116 1382.17 434.163C1384.6 429.472 1385.99 429.819 1390.68 435.9ZM1458.95 441.981C1461.38 447.193 1463.81 447.541 1465.03 442.85C1467.81 432.425 1472.15 447.367 1469.72 458.834C1468.68 463.872 1466.94 466.305 1464.33 467.347C1461.03 468.563 1460.34 468.216 1460.34 465.262C1460.34 463.351 1458.95 461.44 1457.39 460.745C1455.65 460.224 1452.52 458.139 1450.26 456.054C1446.96 453.1 1445.75 452.927 1442.97 454.664C1441.06 455.707 1438.45 456.228 1436.89 455.707C1434.46 454.664 1434.98 453.622 1439.49 448.931C1442.62 445.63 1444.53 442.329 1444.01 441.46C1442.97 439.722 1446.62 438.506 1453.91 437.811C1455.65 437.811 1457.73 439.549 1458.95 441.981ZM1494.56 443.719C1498.73 445.803 1501.16 445.977 1503.59 444.587C1510.19 441.112 1537.47 443.023 1536.25 447.02C1535.9 448.062 1531.04 449.973 1525.31 451.189C1519.75 452.579 1509.85 455.012 1503.42 456.923C1489 461.093 1485.53 461.093 1481.36 456.923C1477.71 453.274 1474.93 442.502 1476.67 439.549C1477.88 437.638 1485.53 439.375 1494.56 443.719ZM1508.98 476.382C1508.98 477.772 1507.42 480.204 1505.68 481.768C1502.38 484.721 1502.2 484.721 1500.47 481.246C1497.51 475.687 1498.21 474.123 1503.77 474.123C1506.89 474.123 1508.98 474.992 1508.98 476.382ZM1373.14 485.069C1373.48 486.806 1372.62 488.022 1371.05 488.022C1369.31 488.022 1368.27 486.459 1368.27 484.374C1368.27 480.204 1372.27 480.725 1373.14 485.069ZM1420.91 485.416C1434.46 481.246 1436.19 486.98 1423.51 493.582C1418.3 496.362 1413.61 498.447 1412.92 498.447C1411.01 498.447 1411.53 490.628 1413.78 485.069C1415.35 481.073 1415.87 480.725 1416.39 483.331C1417.09 485.764 1418.13 486.285 1420.91 485.416ZM1308.86 493.582C1312.68 497.404 1311.3 503.485 1305.91 506.091C1298.61 509.914 1298.27 513.041 1304.35 520.512C1310.43 528.156 1315.12 537.191 1316.85 544.314C1317.55 547.268 1320.85 554.218 1324.15 559.777C1329.88 569.507 1330.06 570.202 1327.28 573.329C1321.2 580.105 1300.18 576.109 1294.27 567.074C1291.84 563.252 1291.67 561.341 1293.23 554.391C1294.97 546.573 1294.97 546.225 1287.5 536.67C1272.56 517.385 1270.99 509.914 1280.55 500.705C1283.85 497.578 1288.37 494.103 1290.45 493.235C1296.18 490.976 1306.43 491.15 1308.86 493.582ZM1490.39 495.667C1490.91 497.057 1490.91 498.621 1490.39 499.142C1487.61 501.922 1479.97 498.273 1481.88 495.146C1483.62 492.366 1489.35 492.713 1490.39 495.667ZM1187.27 501.227C1189.52 502.79 1191.96 505.744 1192.65 507.829C1193.87 511.13 1195.26 511.477 1205.16 510.956C1215.06 510.609 1217.49 511.13 1226.7 516.342C1233.82 520.338 1237.99 524.16 1240.07 528.156C1243.37 534.759 1244.07 541.187 1241.46 542.751C1237.99 545.009 1220.97 543.967 1211.58 541.013C1202.38 538.06 1201.51 538.06 1193.35 540.84C1180.84 545.357 1176.84 545.878 1169.03 543.793C1163.29 542.229 1161.56 540.666 1159.99 536.322C1156.17 525.724 1170.59 498.447 1179.97 498.447C1181.88 498.447 1185.18 499.663 1187.27 501.227ZM1215.23 500.705C1217.84 504.007 1215.93 505.396 1208.11 505.396C1201.16 505.396 1199.6 503.312 1204.64 500.358C1208.81 497.926 1212.97 498.099 1215.23 500.705ZM1087.73 522.423C1103.88 533.021 1109.44 538.233 1109.44 542.751C1109.44 544.836 1111.18 549.179 1113.44 552.48C1115.52 555.781 1119.52 562.036 1122.12 566.553C1127.68 575.935 1130.29 576.804 1133.24 570.375C1134.98 566.727 1134.98 564.642 1133.07 560.125C1130.81 554.739 1130.81 554.044 1134.46 550.743C1136.54 548.832 1140.71 546.747 1143.49 546.052C1148.18 545.183 1149.05 545.704 1150.96 550.395C1152.18 553.349 1154.26 556.65 1155.65 557.692C1157.04 558.735 1158.08 561.862 1158.08 564.642C1158.08 567.248 1158.95 570.028 1159.99 570.549C1160.86 571.244 1162.42 573.503 1163.29 575.761C1164.86 579.584 1165.03 579.757 1175.45 577.499C1182.75 575.935 1188.13 575.761 1191.78 576.804C1194.73 577.673 1199.25 578.02 1201.86 577.325C1209.15 575.761 1213.32 578.02 1215.41 584.275C1216.97 589.139 1216.62 591.746 1213.67 599.738C1211.76 604.95 1208.46 611.378 1206.55 613.811C1203.07 618.154 1203.07 618.154 1178.41 617.807C1156.34 617.285 1152.52 616.764 1142.27 612.594C1125.42 605.645 1122.12 606.166 1117.61 616.938C1116.22 620.413 1113.44 623.714 1111.53 624.409C1107.71 625.451 1092.25 618.675 1085.99 613.116C1084.08 611.378 1079.39 609.467 1075.57 608.772C1071.75 608.251 1065.15 606.166 1060.98 604.255C1054.38 601.475 1053.68 600.433 1054.72 597.132C1055.94 592.788 1058.89 577.673 1058.37 577.151C1058.37 576.978 1053.16 576.804 1046.91 576.63C1027.62 576.109 1003.65 579.757 993.403 584.796C981.938 590.529 968.736 592.093 965.436 588.271C962.309 584.275 964.741 578.541 970.126 577.325C983.328 574.545 991.319 567.943 991.319 559.951C991.319 555.26 1010.6 532.326 1017.72 528.678C1020.33 527.288 1023.98 526.245 1026.06 526.245C1027.97 526.245 1032.49 524.682 1035.96 522.771C1045 517.906 1047.77 518.427 1055.42 525.724C1059.07 529.373 1067.23 536.322 1073.31 541.187C1083.56 549.353 1084.95 549.874 1088.6 547.963L1092.59 545.878L1087.55 542.577C1079.39 537.191 1064.28 521.033 1064.28 517.732C1064.28 509.914 1070.88 511.304 1087.73 522.423ZM1219.75 646.3C1222.18 649.427 1225.66 654.64 1227.57 658.115C1229.3 661.589 1232.26 665.238 1234.17 666.454C1236.08 667.67 1239.38 673.056 1241.46 678.616C1243.55 684.176 1247.72 691.473 1251.02 694.774C1260.57 704.851 1272.04 729.869 1269.78 735.777C1268.39 739.599 1265.44 738.556 1256.92 730.738C1246.5 721.182 1233.12 701.723 1228.96 689.562C1227.22 684.349 1224.27 678.79 1222.35 677.4C1218.01 673.925 1206.72 652.207 1206.72 647.169C1206.72 639.003 1213.15 638.656 1219.75 646.3Z" fill="#F3F6F8"/>
<path d="M1066.13 103.494C1062.97 105.249 1055.6 108.585 1049.63 110.516L1039.1 114.202L1038.58 122.277C1038.05 129.475 1038.75 131.055 1044.19 136.497C1047.53 139.832 1051.91 145.801 1054.02 149.838C1055.95 153.876 1059.28 158.791 1061.21 160.722C1064.55 164.057 1064.55 164.057 1068.93 154.227C1071.39 148.785 1073.32 143.694 1073.32 142.816C1073.32 139.657 1079.81 141.412 1083.85 145.625C1088.59 150.54 1092.62 151.418 1092.62 147.205C1092.62 145.625 1089.99 139.657 1086.66 133.688C1080.16 121.926 1080.16 118.415 1086.48 118.415C1093.5 118.415 1104.38 101.387 1097.89 100.685C1085.78 99.1053 1071.39 100.334 1066.13 103.494ZM1082.09 114.729C1082.09 116.835 1078.58 119.118 1077.36 117.889C1076.13 116.66 1078.41 113.149 1080.51 113.149C1081.39 113.149 1082.09 113.851 1082.09 114.729Z" fill="#F3F6F8"/>
<path d="M534.28 103.845C528.841 104.723 527.788 107.005 531.999 108.585C533.403 109.111 534.631 111.042 534.631 112.798C534.631 118.767 538.492 127.193 542.001 129.124C547.616 132.108 547.791 129.475 542.878 120.346C537.439 110.516 537.088 107.883 540.773 107.883C542.176 107.883 543.405 106.654 543.405 105.249C543.405 103.845 542.352 102.792 541.299 102.792C540.071 102.967 536.912 103.494 534.28 103.845Z" fill="#F3F6F8"/>
<path d="M176.006 106.495C173.946 107.431 169.639 107.618 166.269 107.244C162.524 106.495 158.779 107.431 156.158 109.302C153.724 110.986 149.792 112.296 147.171 112.296C144.736 112.296 139.868 114.354 136.498 116.974C127.698 123.71 115.34 129.136 108.599 129.136C99.7989 129.136 97.3648 134.562 98.1137 153.648C98.6755 169.553 98.6755 169.74 92.6838 174.605C85.9431 180.406 84.0707 180.78 82.7601 177.038C82.0111 175.166 78.828 174.605 71.7129 174.979C57.2954 175.541 54.6741 177.038 55.9847 183.961C56.7337 187.142 58.2316 190.323 59.5423 191.258C61.2275 192.381 61.2275 193.13 59.3551 195.001C56.3592 197.995 56.5465 202.111 59.7295 202.111C61.2275 202.111 65.534 203.795 69.0915 206.041C75.0832 209.596 75.4577 210.157 73.5853 215.396C72.0874 219.513 70.7767 220.635 68.3426 219.887C66.4702 219.326 64.4105 219.7 63.6616 220.823C63.0999 221.758 59.9168 222.694 56.7337 222.694C48.4951 222.694 29.2094 243.276 29.0222 252.071C29.0222 255.813 27.5243 259.555 24.9029 261.988L20.7836 265.73L29.0222 273.215C36.5118 280.138 36.8863 281.074 35.9501 288.184C35.0139 295.482 35.2011 295.669 40.4438 295.669C43.4397 295.669 46.4355 296.791 46.9972 298.288C47.5589 299.785 49.8058 301.282 51.8655 301.844C55.6103 302.966 55.423 303.153 49.9931 310.264C41.1928 321.304 29.0222 330.472 13.6685 337.583L0 343.945L7.4896 344.132C11.6089 344.132 16.6644 343.009 18.5368 341.512C20.5964 340.015 23.5922 338.705 25.2774 338.705C28.2732 338.705 36.699 333.84 54.8613 321.678C59.1678 318.684 64.4105 316.251 66.2829 316.251C71.7129 316.251 81.0749 310.264 83.3218 305.399C85.0069 301.469 86.1304 301.095 93.2455 302.218C99.7989 303.153 104.293 302.218 116.65 297.54C133.315 291.178 141.553 291.178 145.673 297.727C146.796 299.598 149.605 301.282 151.852 301.282C158.779 301.282 171.886 314.755 177.691 327.665C180.499 334.215 184.057 341.886 185.368 344.506C186.678 347.5 187.427 352.926 186.865 357.791C186.117 363.779 186.678 366.586 188.925 368.457C190.61 369.766 191.921 373.322 191.921 376.316C191.921 379.871 192.857 381.742 194.73 381.742C199.785 381.742 201.845 388.665 198.287 394.653C195.104 400.079 195.104 400.266 200.721 409.248C206.713 418.604 207.275 426.088 202.781 435.257C200.534 440.122 203.155 446.11 208.773 449.103C212.143 450.787 212.517 453.033 212.517 467.441C212.517 488.772 210.083 503.18 204.092 515.529C201.47 521.143 199.411 527.131 199.411 529.189C199.411 531.247 198.287 536.299 196.789 540.416C195.291 544.532 194.542 549.959 194.917 552.391C197.725 565.676 200.347 574.284 203.53 580.646C205.402 584.575 206.526 588.504 205.777 589.627C203.904 592.808 208.585 601.602 214.39 604.971C221.879 609.461 226.56 616.759 231.241 630.792C233.488 637.342 237.046 645.013 239.293 647.82L243.412 653.059L242.85 645.387C242.101 638.838 242.476 637.903 245.472 638.464C248.467 639.026 263.259 657.363 266.255 664.286C266.817 665.783 269.064 669.338 270.936 672.145C272.809 674.765 274.307 678.32 274.307 680.004C274.307 681.688 275.055 682.998 275.992 682.998C276.928 682.998 282.171 689.547 287.601 697.406C296.026 709.755 297.524 713.497 297.899 721.169C298.273 728.467 299.209 731.273 302.767 733.893C310.631 740.068 337.594 754.102 341.338 754.102C343.585 754.102 345.645 754.85 346.207 755.786C346.768 756.534 352.011 757.844 357.816 758.405C363.433 758.967 371.671 761.399 375.978 763.644C394.515 773.374 405.562 778.427 407.996 778.427C411.928 778.427 421.852 787.408 427.094 795.454C434.584 807.617 453.308 817.721 458.551 812.669C459.112 811.92 455.368 806.868 449.938 801.442L440.201 791.525L442.822 782.73C444.133 777.678 445.444 771.316 445.444 768.322C445.631 762.147 442.448 760.651 425.035 758.218C416.047 756.908 415.673 756.721 416.234 751.295C416.422 748.114 416.796 741.939 417.171 737.261C417.545 732.583 418.669 726.97 419.979 724.912C421.103 722.666 421.664 720.421 420.915 719.672C418.294 717.24 404.251 721.169 398.821 726.034C390.208 733.706 380.284 739.132 374.293 739.132C370.361 739.132 366.803 736.7 360.062 729.215C355.007 723.976 350.513 717.614 349.764 715.182C348.079 708.071 355.007 672.145 359.313 665.783C362.122 661.854 383.28 651.375 388.71 651.188C390.208 651.188 395.638 652.498 400.693 654.369C407.434 656.614 410.055 656.802 410.617 655.117C410.992 653.995 412.677 651.562 414.362 650.065C417.92 646.51 431.588 647.633 438.516 652.311C440.95 653.808 444.508 654.556 446.567 653.995C450.312 652.872 456.304 659.795 458.363 668.028C459.112 670.648 461.359 675.7 463.606 679.255C467.351 685.243 467.913 685.43 469.223 682.062C469.972 680.004 470.721 670.835 470.721 661.854C470.908 638.09 475.777 630.792 501.803 614.513C509.667 609.648 511.914 606.28 512.101 599.918C512.101 587.569 531.387 560.811 541.685 558.379C551.234 555.946 556.664 552.204 555.915 548.649C553.481 540.042 577.448 527.505 588.308 531.621C592.802 533.305 599.355 531.434 622.198 522.078C629.501 519.085 627.067 514.968 616.207 511.787C604.223 508.232 599.168 503.554 600.853 497.005C601.789 493.076 601.227 492.327 595.236 491.392C586.81 489.707 584.938 485.217 590.929 480.726C596.921 476.048 606.096 476.235 610.402 480.913C614.334 485.404 618.079 485.778 619.577 481.849C620.326 479.79 623.135 479.229 629.501 479.416C634.369 479.603 640.361 479.042 642.607 478.106C648.225 476.235 650.472 481.474 646.165 486.339C644.48 488.023 642.607 492.327 642.046 495.508C640.922 501.496 640.922 501.496 648.225 501.496C652.906 501.496 657.587 502.993 660.395 505.051C662.829 507.109 667.323 509.355 669.945 509.916C674.438 511.039 675 510.664 675 506.922C675 498.876 669.945 485.591 666.761 485.03C665.076 484.655 663.766 482.971 663.766 481.287C663.766 476.235 667.323 465.382 669.196 464.073C671.63 462.763 667.136 449.291 663.391 446.484C661.893 445.361 655.902 438.999 650.097 432.45C641.484 422.907 639.424 419.352 639.424 414.113C639.424 410.558 638.675 406.254 637.552 404.383C636.616 402.512 634.743 394.653 633.62 387.168C631.186 370.889 629.126 367.708 626.318 375.38C622.947 383.987 616.956 389.226 610.215 389.226C602.164 389.226 599.168 384.923 598.981 373.135C598.981 364.901 598.044 362.469 592.989 357.604C589.806 354.423 586.81 350.119 586.061 348.248C585.312 345.441 582.316 344.506 572.954 343.383C566.401 342.822 560.035 342.635 559.098 343.196C558.162 343.757 556.852 350.119 556.103 357.417C554.979 369.392 554.23 371.076 548.239 375.941C541.872 381.181 541.685 381.368 544.681 386.981C548.8 394.84 548.613 396.15 541.872 409.435C537.566 418.416 534.945 421.223 531.2 422.159C522.025 424.03 521.463 424.591 521.463 430.392C521.463 436.754 517.344 439.561 513.037 436.005C511.54 434.696 510.229 431.889 510.229 429.456C510.229 424.404 504.799 419.165 499.369 419.165C495.811 419.165 483.454 409.996 461.172 391.098C457.427 387.917 453.308 382.303 452.184 378.748C451.061 375.193 449.376 372.386 448.44 372.386C444.882 372.386 444.695 364.714 448.252 357.978C456.304 342.073 502.552 303.153 513.225 303.153C514.723 303.153 517.531 305.586 519.216 308.767C521.651 312.883 523.71 314.38 527.829 314.38C530.825 314.38 536.068 316.064 539.438 318.31C548.426 323.923 547.302 316.626 537.191 304.65C528.578 294.172 529.702 282.196 539.064 283.88C542.434 284.629 545.243 283.132 550.298 277.706C554.043 273.776 557.039 269.286 557.039 267.601C557.039 266.105 559.098 261.801 561.533 258.246C563.779 254.69 566.963 248.516 568.46 244.586C570.52 238.786 571.831 237.663 576.325 237.663C585.687 237.663 591.865 242.341 595.049 252.071C598.044 261.052 598.044 261.052 593.176 266.105C586.997 272.654 588.308 273.963 598.232 271.344C602.538 270.221 607.219 269.66 608.717 270.221C612.649 271.718 611.9 279.577 607.594 283.506C605.534 285.377 603.474 288.558 602.725 290.804C600.666 297.727 596.172 301.095 584.938 304.276C578.759 305.96 573.89 308.393 573.89 309.702C573.89 310.825 578.197 312.883 583.627 314.193C593.738 316.439 600.104 320.555 600.104 324.859C600.104 328.975 604.411 336.834 606.47 336.834C607.781 336.834 610.777 339.267 613.585 342.448C616.207 345.441 619.764 348.061 621.449 348.061C623.509 348.061 624.445 346.377 624.445 342.448C624.445 336.46 625.943 335.524 629.875 339.08C631.935 341.138 632.122 340.576 630.999 336.834C629.688 332.343 629.875 332.343 632.497 335.711C635.118 339.267 635.305 339.267 637.365 335.337C640.548 329.35 639.799 322.239 635.68 319.62C631.373 316.813 630.811 310.264 634.556 307.083C636.616 305.212 638.675 305.399 643.356 307.831C649.161 311.012 649.535 310.825 656.838 305.586C668.447 297.54 669.196 295.107 662.642 288.558C647.289 273.215 643.544 266.479 646.914 260.304C648.225 257.684 648.599 252.632 647.85 246.083C646.727 237.102 645.416 234.856 635.305 224.191C623.509 211.654 616.956 200.988 616.956 194.626C616.956 192.568 613.96 187.89 610.402 184.335C604.223 177.973 603.474 177.786 589.993 177.786C582.316 177.786 575.388 176.851 574.827 175.915C572.954 172.921 565.09 173.67 561.533 177.225C559.847 179.096 557.226 180.593 555.728 180.78C551.234 181.528 547.864 185.458 543.932 194.065C538.877 205.292 539.813 217.455 546.366 225.5C552.545 233.359 552.545 235.418 546.741 246.832C539.064 262.175 523.148 266.479 526.144 252.445C527.08 248.703 525.957 244.961 522.587 239.16C519.404 233.734 517.531 226.81 516.595 217.455C516.033 209.97 514.535 203.421 513.786 202.86C512.85 202.298 512.663 199.866 513.225 197.433C513.786 195.001 513.412 191.258 512.101 189.2C510.416 186.019 510.791 184.148 513.225 179.844C517.157 173.108 515.472 163.004 511.165 166.559C508.918 168.43 508.356 168.243 508.356 165.811C508.356 161.507 501.429 162.068 498.994 166.559C497.871 168.617 495.811 170.301 494.313 170.301C490.569 170.301 490.756 174.792 494.688 182.09C499.743 191.445 502.178 202.672 500.492 208.847C499.556 211.841 499.369 220.261 500.118 227.746L501.241 241.031L495.624 244.025C485.326 249.264 479.521 246.832 488.322 240.844C491.692 238.599 492.067 237.476 490.194 235.605C488.883 234.295 487.76 231.675 487.76 229.991C487.76 228.12 487.011 226.249 485.888 225.5C483.454 224.004 476.526 228.681 476.526 231.675C476.526 233.172 473.717 237.102 470.16 240.657C464.917 245.896 462.295 247.019 456.117 247.019C441.137 247.019 428.967 236.915 433.46 228.12C435.895 223.816 440.388 223.442 445.069 227.746C448.252 230.553 448.627 230.365 452.933 225.875C455.555 223.068 459.3 220.823 461.546 220.823C467.913 220.823 467.913 215.958 461.734 205.292C458.551 199.679 455.929 194.065 455.929 192.755C455.929 185.271 464.542 163.191 469.411 158.7C477.087 151.59 476.338 148.97 466.976 150.28C462.857 150.841 457.989 152.526 456.304 154.022C452.746 157.016 434.397 157.016 431.401 154.022C430.465 153.087 427.843 145.789 425.409 137.743C420.541 121.464 418.856 119.967 398.259 115.102C388.897 112.67 388.336 112.857 386.276 116.599C385.153 118.845 379.348 125.955 373.356 132.504C362.497 144.105 359.501 149.906 360.811 156.642C361.56 160.571 370.548 162.255 374.293 159.262C377.476 156.642 392.268 151.403 392.268 152.9C392.268 153.648 390.957 155.706 389.272 157.391C386.463 160.571 386.463 161.133 389.272 165.436C390.957 168.243 391.519 170.489 390.395 171.237C389.272 171.798 388.523 174.418 388.523 176.851C388.523 180.031 389.834 181.528 393.766 182.464C400.319 183.961 407.247 188.452 407.247 191.071C407.247 192.381 403.315 192.755 396.012 192.194C383.467 191.258 381.408 192.568 379.348 202.672C378.412 207.537 377.101 208.847 372.795 209.221C368.488 209.783 365.867 208.099 358.377 200.427C353.322 195.188 347.705 190.884 345.832 190.884C343.96 190.884 341.338 189.761 340.028 188.452C338.904 187.329 335.534 186.206 332.725 186.206C328.232 186.206 327.67 185.458 327.67 179.657V173.108H308.01C297.15 173.108 286.477 172.36 284.043 171.611C281.234 170.489 277.677 170.863 274.307 172.173C270.187 173.857 268.128 173.857 264.57 171.985C260.264 169.74 249.216 161.133 241.54 154.397C239.293 152.338 233.675 148.783 229.182 146.351C220.194 141.86 189.3 113.418 187.614 107.992C186.304 104.624 182.184 104.063 176.006 106.495ZM570.146 185.832C570.146 190.323 566.588 193.691 564.341 191.445C562.843 189.949 562.843 188.452 564.528 185.458C566.588 181.341 570.146 181.716 570.146 185.832ZM387.961 210.718C387.399 211.28 385.714 211.467 384.404 210.906C382.906 210.344 383.467 209.783 385.527 209.783C387.587 209.596 388.71 210.157 387.961 210.718ZM416.609 221.758C418.481 224.004 418.481 225.313 416.983 226.81C415.673 228.12 414.736 230.74 414.736 232.611C414.736 235.231 413.988 235.792 411.553 234.856C409.681 234.108 401.63 232.985 393.766 232.237C371.11 230.178 368.488 222.881 390.395 222.694C396.012 222.694 402.004 221.758 403.502 220.823C407.621 218.016 413.988 218.577 416.609 221.758Z" fill="#F3F6F8"/>
<path d="M1281.6 142.817C1276.16 147.732 1270.2 151.945 1268.44 152.472C1258.97 155.631 1251.42 178.101 1250.02 207.593C1249.14 225.499 1249.14 225.85 1253.35 227.605C1259.67 230.59 1262.83 225.499 1261.6 213.913C1260.02 198.289 1271.95 172.133 1288.8 154.403C1294.76 148.083 1297.92 143.519 1297.22 141.939C1296.69 140.359 1296.17 138.077 1296.17 136.672C1296.17 132.284 1291.95 134.039 1281.6 142.817Z" fill="#F3F6F8"/>
<path d="M536.561 166.866C534.105 172.484 534.456 173.01 539.544 171.606C542.527 170.904 543.054 170.202 541.474 168.271C540.422 167.042 540.071 165.111 540.773 164.058C541.299 163.18 541.124 162.302 540.246 162.302C539.369 162.302 537.79 164.409 536.561 166.866Z" fill="#F3F6F8"/>
<path d="M1265.46 230.765C1265.98 231.643 1267.39 232.521 1268.27 232.521C1269.32 232.521 1269.49 231.643 1268.97 230.765C1268.44 229.712 1267.04 229.01 1266.16 229.01C1265.11 229.01 1264.93 229.712 1265.46 230.765Z" fill="#F3F6F8"/>
<path d="M108.242 308.006C108.242 312.043 110.523 312.57 113.331 309.059C114.91 307.128 114.735 306.426 112.453 305.548C108.418 303.968 108.242 304.144 108.242 308.006Z" fill="#F3F6F8"/>
<path d="M873.988 310.288C869.075 313.096 872.935 326.965 880.305 332.231C885.393 336.093 885.92 336.093 894.167 333.635C904.695 330.475 909.783 328.018 915.047 323.278C919.083 319.416 920.136 315.027 916.978 315.027C915.749 315.027 913.819 313.623 912.591 311.868C910.836 309.41 907.502 308.883 893.465 308.883C884.165 308.883 875.391 309.585 873.988 310.288Z" fill="#F3F6F8"/>
<path d="M964.881 400.519C962.951 403.328 960.845 407.365 960.143 409.823C958.213 416.494 952.247 425.622 949.79 425.622C946.281 425.622 939.789 433.522 937.332 440.895L935.051 447.565L941.894 448.97C952.247 451.076 957.862 447.741 959.792 438.261C960.669 433.522 960.669 429.835 959.617 428.606C957.511 426.324 961.547 415.089 964.179 415.089C967.162 415.089 970.496 425.798 968.566 428.957C965.583 433.697 963.828 450.198 966.284 450.198C967.688 450.198 968.215 452.481 967.688 457.22C967.337 461.082 967.864 464.242 968.741 464.242C969.618 464.242 975.584 462.136 981.726 459.678C991.201 455.992 993.833 455.465 997.518 457.045C1002.43 459.327 1004.54 458.449 1001.73 454.938C1000.68 453.709 1000.15 451.076 1000.68 448.97C1001.38 446.688 1000.15 443.879 997.518 441.07C989.095 432.117 980.322 417.898 977.69 409.296C975.058 400.519 972.25 395.779 969.618 395.779C968.916 395.779 966.811 397.886 964.881 400.519Z" fill="#F3F6F8"/>
<path d="M1857.67 441.597C1857.67 443.528 1858.37 444.756 1859.42 444.054C1860.3 443.528 1860.65 441.948 1859.95 440.543C1858.72 436.857 1857.67 437.208 1857.67 441.597Z" fill="#F3F6F8"/>
<path d="M1863.81 470.386C1863.98 488.818 1865.21 492.154 1869.95 487.941C1871.7 486.361 1873.98 485.483 1874.86 486.01C1877.49 487.59 1882.23 485.308 1882.23 482.499C1882.23 481.094 1881.53 480.041 1880.48 480.041C1879.6 480.041 1878.72 478.461 1878.72 476.53C1878.72 474.248 1877.49 473.019 1875.21 473.019C1872.58 473.019 1870.47 470.562 1867.49 463.715L1863.46 454.587L1863.81 470.386Z" fill="#F3F6F8"/>
<path d="M1867.32 504.618C1867.84 509.884 1868.72 516.731 1869.25 519.715C1869.6 522.699 1869.25 527.439 1868.19 530.072C1865.74 536.567 1848.89 552.542 1836.43 560.09C1826.61 566.059 1823.27 569.921 1825.38 573.432C1825.91 574.31 1825.03 576.592 1823.45 578.347C1820.47 581.683 1821.17 585.369 1824.68 585.369C1825.55 585.369 1829.59 582.56 1833.63 579.225C1837.49 575.89 1843.45 572.554 1846.79 572.028C1850.3 571.325 1855.56 569.043 1858.89 566.761C1862.23 564.655 1868.72 561.495 1873.46 559.915C1882.41 556.931 1884.51 553.244 1880.3 549.031C1879.07 547.802 1878.02 539.552 1877.84 528.317C1877.49 512.517 1876.97 509.182 1873.98 505.847C1872.05 503.74 1869.6 500.405 1868.37 498.474C1866.79 495.665 1866.61 496.894 1867.32 504.618Z" fill="#F3F6F8"/>
<path d="M275.464 634.522C277.219 642.773 283.886 655.587 286.694 655.587C289.677 655.587 289.677 655.412 283.886 642.597C278.096 629.607 273.709 625.393 275.464 634.522Z" fill="#F3F6F8"/>
<path d="M485.325 675.951C490.589 678.233 498.134 681.393 501.994 682.622C513.575 686.659 532.35 695.437 533.579 697.543C534.28 698.596 539.545 699.474 545.51 699.474C554.81 699.474 555.863 699.123 553.933 696.841C552.705 695.437 550.073 694.208 547.967 694.208C544.282 694.208 513.751 683.85 493.045 675.6C479.008 670.158 473.042 670.333 485.325 675.951Z" fill="#F3F6F8"/>
<path d="M1775.2 710.358C1773.09 719.487 1773.27 720.364 1778.35 730.546C1781.34 736.339 1788.18 747.574 1793.62 755.649C1799.23 763.549 1804.67 772.853 1806.08 776.013C1809.06 783.21 1810.11 783.386 1815.55 777.593L1819.59 773.379L1815.73 767.06C1813.8 763.549 1812.04 758.809 1812.04 756.351C1812.04 750.91 1809.24 750.91 1807.83 756.527C1807.13 758.985 1806.08 760.916 1805.2 760.916C1802.57 760.916 1796.6 744.063 1797.48 739.323C1798.18 735.988 1797.13 733.706 1794.15 730.722C1788 725.104 1785.2 719.136 1783.97 710.007C1783.44 704.565 1782.21 701.932 1780.11 701.581C1778 701.23 1776.77 703.161 1775.2 710.358Z" fill="#F3F6F8"/>
<path d="M533.403 743.536C532.701 744.238 526.911 745.116 520.769 745.467L509.539 745.994L506.556 754.771C503.749 762.671 503.047 763.549 498.66 763.022C492.168 762.32 488.483 763.9 490.238 766.533C493.221 771.448 497.607 786.721 497.783 792.689C497.783 799.009 493.221 807.611 484.798 817.09C476.727 826.219 474.972 830.607 475.323 842.018C475.323 848.162 475.147 855.71 474.621 858.87C474.095 863.786 474.972 865.892 481.113 872.387C485.149 876.776 492.87 889.591 498.485 901.001C507.083 918.029 510.241 922.769 517.435 928.562C534.807 942.606 538.316 945.766 540.597 950.33C544.282 957.703 548.142 1058.82 545.159 1072.51C542.878 1083.75 542.527 1091.12 543.931 1107.62C546.212 1134.3 546.739 1156.25 544.984 1160.63C543.931 1163.27 543.931 1165.73 544.808 1166.25C545.686 1166.78 546.914 1173.27 547.265 1180.47C548.142 1193.46 549.195 1196.45 559.723 1218.74C563.584 1226.99 566.04 1229.98 569.55 1230.68C572.006 1231.38 578.148 1234.89 583.061 1238.58C593.062 1246.3 599.906 1247.18 606.223 1242.09C611.136 1237.88 611.136 1237.35 604.994 1232.08C598.677 1226.82 589.027 1208.21 589.027 1201.54C589.027 1198.9 591.834 1191.36 595.168 1184.86L601.485 1172.92L595.168 1167.31C586.745 1159.41 586.921 1157.65 596.923 1149.22C598.326 1148 599.555 1145.36 599.555 1143.43C599.555 1141.5 601.485 1137.29 603.941 1134.13C606.398 1130.97 608.328 1126.75 608.328 1124.82C608.328 1122.89 609.907 1119.91 611.838 1118.15C613.768 1116.4 616.224 1112.01 617.102 1108.32C618.856 1102 623.945 1098.14 636.754 1093.93C638.509 1093.22 640.088 1090.24 640.79 1086.2C643.422 1070.05 643.597 1069.53 649.388 1067.24C656.407 1064.26 663.425 1057.76 666.935 1050.74C668.514 1047.76 673.603 1039.51 678.34 1032.49C686.587 1020.2 689.57 1013.88 691.5 1004.75C693.781 993.69 709.223 979.12 723.085 974.731C735.368 970.869 736.245 969.816 740.807 955.07C743.088 947.17 745.545 936.111 746.247 930.318C747.65 917.678 750.809 911.008 763.618 894.155C771.69 883.271 773.269 879.936 773.269 873.967C773.269 868.876 772.216 865.717 769.408 862.908C762.039 855.535 741.333 844.827 730.279 842.544C724.313 841.14 714.311 837.805 708.17 834.996C702.028 832.187 693.781 828.852 689.921 827.623C677.463 823.761 675.006 822.532 675.006 820.25C675.006 818.846 673.603 815.159 671.672 811.824C669.918 808.488 667.812 803.749 667.11 801.467C664.478 792.689 656.407 788.301 634.824 783.561C627.981 782.157 623.243 779.523 618.154 774.959C614.119 771.448 609.205 767.586 607.1 766.357C604.994 765.304 603.064 762.32 602.713 759.687C602.187 755.298 601.309 754.596 593.413 753.718C588.676 753.191 582.885 753.542 580.78 754.42C576.217 756.351 566.391 754.069 554.81 748.276C546.388 744.063 535.333 741.605 533.403 743.536Z" fill="#F3F6F8"/>
<path d="M1641.84 766.533C1641.84 768.113 1645.87 777.944 1650.61 788.301C1655.53 798.658 1659.39 808.138 1659.39 809.367C1659.39 815.16 1650.26 810.595 1635.35 797.429C1630.78 793.392 1626.92 791.285 1625.17 791.812C1620.78 793.567 1622.19 797.254 1628.5 801.116C1637.63 806.909 1652.37 828.15 1652.37 835.698C1652.37 839.912 1680.97 867.297 1688.16 869.93C1691.67 871.159 1694.48 872.914 1694.48 873.617C1694.48 874.319 1696.94 875.021 1699.92 875.021C1702.9 875.021 1710.8 876.601 1717.29 878.707C1723.96 880.638 1731.15 882.043 1733.43 881.692L1737.47 881.165L1733.08 878.181C1730.63 876.601 1723.26 874.319 1716.59 873.265C1701.15 870.808 1688.51 865.366 1684.65 859.573C1682.02 855.535 1682.02 854.833 1684.83 850.093C1687.99 844.476 1687.81 843.949 1681.85 840.965C1677.46 838.683 1670.79 827.097 1669.21 818.495C1668.69 815.335 1667.81 807.611 1667.28 801.467C1666.58 790.583 1666.23 790.056 1657.28 781.279C1652.19 776.188 1646.58 770.22 1645 767.938C1642.72 764.427 1642.01 764.251 1641.84 766.533Z" fill="#F3F6F8"/>
<path d="M1752.03 786.721C1750.81 788.301 1747.47 790.934 1744.66 792.689C1741.86 794.445 1735.19 800.062 1729.75 805.329C1724.31 810.595 1717.82 816.213 1715.18 817.968C1708.52 822.181 1709.04 826.57 1717.29 836.4C1722.91 843.071 1725.71 845.002 1730.98 845.704C1734.49 846.055 1740.1 847.46 1743.26 848.864C1748.17 850.971 1749.23 850.971 1750.63 848.689C1751.51 847.284 1752.38 844.3 1752.38 842.193C1752.38 838.858 1755.37 831.31 1761.33 820.25C1762.21 818.67 1762.39 814.984 1761.86 812.175C1761.33 809.366 1762.03 804.275 1763.61 800.589C1767.3 791.636 1767.3 791.636 1760.46 787.599C1754.84 784.263 1754.14 784.263 1752.03 786.721Z" fill="#F3F6F8"/>
<path d="M1859.6 834.118C1857.14 839.034 1861 842.72 1879.07 852.902C1896.27 862.557 1900.48 867.472 1898.02 874.143C1896.09 879.058 1897.15 880.287 1903.64 880.287C1906.45 880.287 1911.01 882.043 1913.64 883.974L1918.73 887.66L1928.73 883.096L1938.56 878.356L1950.84 883.974C1957.51 887.133 1963.47 889.064 1964 888.538C1964.53 888.011 1962.42 883.798 1959.26 879.409C1954.35 872.563 1953.82 870.808 1955.58 867.823C1957.33 865.015 1957.33 864.488 1955.05 864.488C1953.47 864.488 1950.14 862.381 1947.68 859.924C1941.89 854.131 1933.12 848.689 1929.26 848.689C1927.68 848.689 1919.43 846.231 1910.83 843.422C1901.53 840.087 1891.53 837.98 1885.74 837.98C1877.67 837.805 1871.18 836.049 1862.58 831.661C1861.88 831.31 1860.65 832.538 1859.6 834.118Z" fill="#F3F6F8"/>
<path d="M1917.68 914.869C1915.39 930.844 1909.78 945.239 1906.1 945.239C1901.01 945.239 1888.9 937.69 1885.57 932.424C1882.93 928.211 1882.23 924.349 1882.58 917.152L1883.11 907.497L1877.32 908.023C1874.16 908.199 1869.25 907.145 1866.44 905.741C1861.88 903.459 1860.12 903.283 1854.33 905.214C1850.65 906.619 1845.38 910.13 1842.75 913.29C1840.29 916.274 1835.73 920.487 1832.92 922.594C1828.36 925.753 1826.96 925.929 1822.57 924.173C1815.03 921.014 1809.94 923.12 1803.8 931.722C1800.11 937.164 1796.78 939.797 1792.92 940.499C1789.58 941.201 1787.48 942.781 1787.48 944.361C1787.48 955.07 1774.67 963.847 1751.16 969.64C1729.4 974.906 1727.82 975.784 1727.82 982.806C1727.82 990.354 1725.19 997.727 1720.45 1002.64C1716.94 1006.33 1716.94 1006.68 1719.75 1011.07C1727.29 1022.65 1730.1 1045.83 1726.24 1063.38C1722.73 1078.65 1730.28 1083.75 1745.72 1076.2C1750.98 1073.74 1758.88 1071.46 1763.79 1071.11C1768.7 1070.75 1774.67 1069.17 1777.48 1067.42C1784.14 1063.03 1794.32 1059.52 1800.99 1059.34C1804.15 1059.34 1810.46 1058.47 1815.38 1057.41C1826.43 1055.13 1836.26 1057.59 1844.51 1064.79C1848.72 1068.47 1850.65 1071.81 1850.65 1074.97C1850.65 1081.29 1852.05 1082.52 1856.44 1080.06C1859.42 1078.48 1860.65 1078.83 1862.75 1081.99C1864.33 1084.1 1867.67 1088.66 1870.47 1092.17C1873.11 1095.51 1875.21 1100.6 1875.21 1103.41C1875.21 1106.04 1875.91 1110.08 1876.79 1112.36C1878.72 1117.45 1892.58 1125 1896.97 1123.24C1898.9 1122.54 1901.88 1123.42 1905.04 1125.88C1911.71 1130.79 1913.29 1130.62 1919.08 1124.3C1922.06 1121.14 1925.75 1119.03 1928.56 1119.03C1934.52 1119.03 1940.14 1113.24 1940.31 1107.09C1940.31 1104.46 1942.77 1098.84 1945.4 1094.45C1948.21 1090.06 1952.07 1083.57 1954.17 1080.06C1956.1 1076.55 1958.74 1072.86 1959.79 1072.16C1964 1069.53 1971.72 1056.54 1971.72 1052.15C1971.72 1049.86 1973.3 1045.48 1975.05 1042.49C1977.51 1038.45 1978.39 1033.54 1978.39 1022.83C1978.56 1009.31 1978.21 1008.44 1972.6 1001.06C1969.26 996.85 1966.46 992.11 1966.46 990.53C1966.46 987.721 1961.54 980.173 1950.31 965.427C1948.03 962.618 1943.82 952.436 1940.84 942.781C1937.85 933.302 1934.17 924.525 1932.77 923.471C1929.43 921.014 1925.05 912.587 1923.47 905.214C1922.94 902.23 1921.71 899.597 1921.01 899.597C1920.31 899.597 1918.73 906.443 1917.68 914.869Z" fill="#F3F6F8"/>
<path d="M1304.24 918.03C1301.61 921.365 1295.46 926.28 1290.73 928.738C1281.08 933.653 1278.62 937.691 1278.62 949.628C1278.62 954.017 1277.04 960.336 1275.11 964.198C1271.95 970.167 1271.78 972.273 1273.35 979.471C1275.64 989.301 1278.79 992.286 1285.64 991.232C1293.01 990.179 1295.29 986.668 1303.18 964.549C1317.92 923.471 1319.85 911.885 1312.13 911.885C1310.38 911.885 1306.69 914.694 1304.24 918.03Z" fill="#F3F6F8"/>
<path d="M1895.74 1154.49C1894.69 1162.57 1896.27 1167.13 1900.83 1168.89C1907.32 1171.34 1912.24 1166.78 1914.69 1156.07C1915.92 1150.45 1915.75 1150.1 1912.06 1151.15C1909.78 1151.68 1905.74 1150.98 1903.11 1149.57C1900.48 1148.35 1897.85 1147.12 1897.5 1147.12C1897.15 1147.12 1896.27 1150.45 1895.74 1154.49Z" fill="#F3F6F8"/>
</svg>
