<svg width="102" height="67" viewBox="0 0 102 67" fill="none" xmlns="http://www.w3.org/2000/svg">
<path d="M2.646 12.22L6.102 22.048L9.522 12.22H12.132L7.29 25H4.896L0.036 12.22H2.646ZM13.2441 11.86H15.6561V21.976C15.6561 22.42 15.7281 22.714 15.8721 22.858C16.0161 23.002 16.2141 23.074 16.4661 23.074C16.6581 23.074 16.8561 23.05 17.0601 23.002C17.2641 22.954 17.4441 22.894 17.6001 22.822L17.9241 24.658C17.6001 24.814 17.2221 24.934 16.7901 25.018C16.3581 25.102 15.9681 25.144 15.6201 25.144C14.8641 25.144 14.2761 24.946 13.8561 24.55C13.4481 24.142 13.2441 23.566 13.2441 22.822V11.86ZM18.327 22.21C18.327 21.598 18.495 21.064 18.831 20.608C19.179 20.14 19.659 19.78 20.271 19.528C20.883 19.276 21.585 19.15 22.377 19.15C22.773 19.15 23.175 19.186 23.583 19.258C23.991 19.318 24.345 19.408 24.645 19.528V19.024C24.645 18.424 24.465 17.962 24.105 17.638C23.757 17.314 23.235 17.152 22.539 17.152C22.023 17.152 21.531 17.242 21.063 17.422C20.595 17.602 20.103 17.866 19.587 18.214L18.813 16.63C19.437 16.222 20.073 15.916 20.721 15.712C21.381 15.508 22.071 15.406 22.791 15.406C24.135 15.406 25.179 15.742 25.923 16.414C26.679 17.086 27.057 18.046 27.057 19.294V22.3C27.057 22.564 27.099 22.75 27.183 22.858C27.267 22.954 27.417 23.014 27.633 23.038V25C27.417 25.048 27.219 25.078 27.039 25.09C26.871 25.114 26.727 25.126 26.607 25.126C26.127 25.126 25.761 25.018 25.509 24.802C25.257 24.586 25.107 24.322 25.059 24.01L25.005 23.524C24.585 24.064 24.069 24.478 23.457 24.766C22.857 25.042 22.239 25.18 21.603 25.18C20.967 25.18 20.403 25.054 19.911 24.802C19.419 24.538 19.029 24.184 18.741 23.74C18.465 23.284 18.327 22.774 18.327 22.21ZM24.195 22.696C24.495 22.408 24.645 22.132 24.645 21.868V20.914C24.021 20.662 23.391 20.536 22.755 20.536C22.119 20.536 21.603 20.674 21.207 20.95C20.811 21.214 20.613 21.568 20.613 22.012C20.613 22.372 20.757 22.696 21.045 22.984C21.333 23.272 21.747 23.416 22.287 23.416C22.647 23.416 22.995 23.35 23.331 23.218C23.679 23.086 23.967 22.912 24.195 22.696ZM28.7349 20.284C28.7349 19.384 28.9149 18.562 29.2749 17.818C29.6349 17.074 30.1329 16.486 30.7689 16.054C31.4049 15.622 32.1309 15.406 32.9469 15.406C33.6429 15.406 34.2669 15.58 34.8189 15.928C35.3829 16.264 35.8209 16.696 36.1329 17.224V11.86H38.5449V22.3C38.5449 22.564 38.5869 22.75 38.6709 22.858C38.7549 22.954 38.8989 23.014 39.1029 23.038V25C38.6709 25.084 38.3289 25.126 38.0769 25.126C37.6449 25.126 37.2849 25.018 36.9969 24.802C36.7209 24.586 36.5649 24.304 36.5289 23.956L36.4929 23.362C36.1449 23.95 35.6709 24.4 35.0709 24.712C34.4829 25.024 33.8649 25.18 33.2169 25.18C32.3409 25.18 31.5669 24.964 30.8949 24.532C30.2229 24.088 29.6949 23.5 29.3109 22.768C28.9269 22.024 28.7349 21.196 28.7349 20.284ZM36.1329 21.544V19.294C35.9409 18.766 35.6109 18.328 35.1429 17.98C34.6749 17.632 34.1949 17.458 33.7029 17.458C33.2109 17.458 32.7789 17.596 32.4069 17.872C32.0349 18.136 31.7469 18.49 31.5429 18.934C31.3389 19.366 31.2369 19.834 31.2369 20.338C31.2369 20.854 31.3509 21.328 31.5789 21.76C31.8069 22.18 32.1129 22.516 32.4969 22.768C32.8929 23.008 33.3429 23.128 33.8469 23.128C34.3029 23.128 34.7529 22.978 35.1969 22.678C35.6529 22.378 35.9649 22 36.1329 21.544ZM40.9125 14.254V11.86H43.3245V14.254H40.9125ZM40.9125 25V15.568H43.3245V25H40.9125ZM48.0383 25L44.5643 15.568H47.0663L49.4423 22.804L51.8363 15.568H54.1223L50.6663 25H48.0383ZM59.4364 25.18C58.4044 25.18 57.5164 24.958 56.7724 24.514C56.0404 24.058 55.4764 23.458 55.0804 22.714C54.6844 21.97 54.4864 21.166 54.4864 20.302C54.4864 19.426 54.6844 18.616 55.0804 17.872C55.4884 17.128 56.0584 16.534 56.7904 16.09C57.5344 15.634 58.4164 15.406 59.4364 15.406C60.4564 15.406 61.3324 15.634 62.0644 16.09C62.8084 16.534 63.3784 17.128 63.7744 17.872C64.1704 18.616 64.3684 19.426 64.3684 20.302C64.3684 21.166 64.1704 21.97 63.7744 22.714C63.3784 23.458 62.8084 24.058 62.0644 24.514C61.3324 24.958 60.4564 25.18 59.4364 25.18ZM56.9704 20.302C56.9704 20.854 57.0784 21.346 57.2944 21.778C57.5104 22.198 57.8044 22.528 58.1764 22.768C58.5484 23.008 58.9684 23.128 59.4364 23.128C59.8924 23.128 60.3064 23.008 60.6784 22.768C61.0504 22.516 61.3444 22.18 61.5604 21.76C61.7884 21.328 61.9024 20.836 61.9024 20.284C61.9024 19.744 61.7884 19.264 61.5604 18.844C61.3444 18.412 61.0504 18.076 60.6784 17.836C60.3064 17.584 59.8924 17.458 59.4364 17.458C58.9684 17.458 58.5484 17.584 58.1764 17.836C57.8044 18.076 57.5104 18.412 57.2944 18.844C57.0784 19.264 56.9704 19.75 56.9704 20.302ZM69.4704 25.18C68.6664 25.18 67.8984 25.048 67.1664 24.784C66.4344 24.52 65.8044 24.13 65.2764 23.614L66.1404 22.048C66.7044 22.504 67.2564 22.84 67.7964 23.056C68.3364 23.272 68.8644 23.38 69.3804 23.38C69.8484 23.38 70.2204 23.296 70.4964 23.128C70.7844 22.96 70.9284 22.708 70.9284 22.372C70.9284 22.024 70.7544 21.79 70.4064 21.67C70.0584 21.538 69.5724 21.376 68.9484 21.184C68.2524 20.968 67.6704 20.746 67.2024 20.518C66.7344 20.29 66.3804 20.014 66.1404 19.69C65.9124 19.366 65.7984 18.946 65.7984 18.43C65.7984 17.506 66.1464 16.768 66.8424 16.216C67.5384 15.664 68.4624 15.388 69.6144 15.388C70.2864 15.388 70.9224 15.496 71.5224 15.712C72.1224 15.916 72.6684 16.252 73.1604 16.72L72.1884 18.25C71.2644 17.53 70.3704 17.17 69.5064 17.17C69.1224 17.17 68.7804 17.242 68.4804 17.386C68.1924 17.53 68.0484 17.782 68.0484 18.142C68.0484 18.478 68.1864 18.718 68.4624 18.862C68.7504 19.006 69.1824 19.162 69.7584 19.33C70.5024 19.558 71.1324 19.78 71.6484 19.996C72.1764 20.212 72.5724 20.488 72.8364 20.824C73.1124 21.16 73.2504 21.616 73.2504 22.192C73.2504 23.128 72.9084 23.86 72.2244 24.388C71.5404 24.916 70.6224 25.18 69.4704 25.18ZM80.4902 24.514C80.1662 24.658 79.7642 24.802 79.2842 24.946C78.8162 25.09 78.3302 25.162 77.8262 25.162C77.3822 25.162 76.9742 25.084 76.6022 24.928C76.2302 24.772 75.9302 24.526 75.7022 24.19C75.4862 23.842 75.3782 23.392 75.3782 22.84V17.422H74.1362V15.568H75.3782V12.508H77.7902V15.568H79.7702V17.422H77.7902V22.03C77.7902 22.354 77.8742 22.588 78.0422 22.732C78.2222 22.876 78.4382 22.948 78.6902 22.948C78.9422 22.948 79.1882 22.906 79.4282 22.822C79.6682 22.738 79.8602 22.666 80.0042 22.606L80.4902 24.514ZM85.9794 25.18C84.9474 25.18 84.0594 24.958 83.3154 24.514C82.5834 24.058 82.0194 23.458 81.6234 22.714C81.2274 21.97 81.0294 21.166 81.0294 20.302C81.0294 19.426 81.2274 18.616 81.6234 17.872C82.0314 17.128 82.6014 16.534 83.3334 16.09C84.0774 15.634 84.9594 15.406 85.9794 15.406C86.9994 15.406 87.8754 15.634 88.6074 16.09C89.3514 16.534 89.9214 17.128 90.3174 17.872C90.7134 18.616 90.9114 19.426 90.9114 20.302C90.9114 21.166 90.7134 21.97 90.3174 22.714C89.9214 23.458 89.3514 24.058 88.6074 24.514C87.8754 24.958 86.9994 25.18 85.9794 25.18ZM83.5134 20.302C83.5134 20.854 83.6214 21.346 83.8374 21.778C84.0534 22.198 84.3474 22.528 84.7194 22.768C85.0914 23.008 85.5114 23.128 85.9794 23.128C86.4354 23.128 86.8494 23.008 87.2214 22.768C87.5934 22.516 87.8874 22.18 88.1034 21.76C88.3314 21.328 88.4454 20.836 88.4454 20.284C88.4454 19.744 88.3314 19.264 88.1034 18.844C87.8874 18.412 87.5934 18.076 87.2214 17.836C86.8494 17.584 86.4354 17.458 85.9794 17.458C85.5114 17.458 85.0914 17.584 84.7194 17.836C84.3474 18.076 84.0534 18.412 83.8374 18.844C83.6214 19.264 83.5134 19.75 83.5134 20.302ZM98.9834 25L96.2294 20.932L94.9514 22.192V25H92.5394V11.86H94.9514V19.816L98.7494 15.586H101.305L97.7954 19.582L101.557 25H98.9834Z" fill="#636363"/>
<circle cx="50.5" cy="49.5" r="17.5" fill="white"/>
<circle cx="50.5" cy="49.5" r="11.5" fill="#4DDF19"/>
<g clip-path="url(#clip0_260_303)">
<path d="M49.8128 42.7318C49.4952 42.7821 49.2025 42.9494 49.012 43.1911C48.9315 43.294 48.8362 43.4832 48.801 43.6133C48.7749 43.7074 48.7715 43.7457 48.7704 43.8922C48.7693 44.0836 48.784 44.1679 48.8464 44.3297C48.9156 44.5069 49.037 44.6732 49.1912 44.8011L49.2627 44.8602V45.2616V45.6641H49.308H49.3534V45.9157V46.1672H49.308C49.2672 46.1672 49.2627 46.1694 49.2627 46.1946V46.2219H48.2793H47.2948L47.2438 46.1596C47.0078 45.873 46.5451 45.9036 46.3477 46.2186C46.1481 46.5358 46.3489 46.9471 46.7356 47.0094C46.9205 47.0401 47.1428 46.9558 47.246 46.8169L47.2812 46.7688H48.2725C49.2445 46.7688 49.2627 46.7688 49.2627 46.7896C49.2627 46.8071 49.2717 46.8115 49.3058 46.8147L49.3477 46.818L49.3511 49.0219C49.3534 50.5532 49.3511 51.2761 49.3421 51.3899C49.3194 51.6918 49.2706 51.9105 49.0415 52.7461C49.0075 52.8719 48.9678 53.0426 48.9542 53.1235C48.9405 53.2044 48.9292 53.2722 48.9281 53.2733C48.9281 53.2744 48.8906 53.2613 48.8464 53.2438C48.801 53.2263 48.7126 53.2001 48.6479 53.1847C48.2804 53.0972 47.7303 52.8719 47.356 52.6543C47.0407 52.4727 46.8048 52.2933 46.5576 52.0494C46.3783 51.8733 46.2831 51.7618 46.1606 51.5868C45.9281 51.251 45.7954 50.9415 45.7069 50.5247C45.7024 50.504 45.7092 50.5018 45.8645 50.4897C45.9542 50.4832 46.0449 50.4711 46.0664 50.4624C46.1436 50.4318 46.1753 50.3377 46.1538 50.2043C46.1277 50.0326 45.9859 49.7077 45.809 49.4091C45.6638 49.1652 45.4222 48.836 45.3893 48.836C45.3666 48.836 45.268 48.9476 45.1806 49.0711C44.9526 49.3949 44.778 49.7547 44.6611 50.143C44.6044 50.3333 44.6169 50.4001 44.7167 50.4504C44.7621 50.4733 44.8993 50.4985 44.9787 50.4985C45.0173 50.4985 45.0559 50.5029 45.0638 50.5083C45.0729 50.5138 45.0887 50.5707 45.1012 50.6418C45.2838 51.6918 45.9292 52.7604 46.8298 53.5052C47.4819 54.0444 48.2362 54.4458 49.1765 54.7532C49.4804 54.8516 49.5621 54.8855 49.671 54.9555C49.7594 55.0124 49.8252 55.0791 49.8763 55.1644C49.9205 55.241 49.9602 55.2705 50.0044 55.2629C50.0498 55.2541 50.0589 55.2443 50.1111 55.1601C50.1893 55.0332 50.3243 54.9282 50.5035 54.8549C50.5409 54.8396 50.6804 54.7926 50.8109 54.751C52.1311 54.3277 53.153 53.6813 53.8755 52.8096C54.4199 52.1522 54.7874 51.3385 54.894 50.5532L54.9008 50.5029L55.0653 50.4908C55.308 50.4722 55.3511 50.4438 55.3625 50.3027C55.3693 50.2032 55.3466 50.1124 55.2661 49.9133C55.1606 49.6552 55.0267 49.4135 54.8373 49.1368C54.725 48.9749 54.6354 48.8622 54.6014 48.8426C54.5833 48.8327 54.5731 48.8382 54.5356 48.8797C54.2861 49.151 53.9946 49.6979 53.8687 50.131C53.8143 50.318 53.8256 50.4055 53.9118 50.4493C53.9583 50.4722 54.0944 50.4985 54.167 50.4985C54.201 50.4985 54.2441 50.5018 54.2646 50.5051L54.3008 50.5127L54.294 50.5696C54.2838 50.6593 54.2158 50.9076 54.1681 51.029C54.0672 51.2915 53.8755 51.6141 53.6861 51.8383C53.5829 51.9619 53.3594 52.1807 53.2324 52.2835C52.9715 52.4946 52.6959 52.6663 52.3534 52.8282C52.088 52.954 51.8793 53.0349 51.6082 53.1191C51.3666 53.1924 51.0899 53.281 51.0638 53.2919C51.0456 53.2996 51.0434 53.2941 51.0434 53.2547C51.0434 53.1377 51.0037 52.9354 50.8835 52.4497C50.7587 51.9411 50.7145 51.7082 50.6918 51.4435C50.685 51.3636 50.6804 50.4405 50.6804 49.0624V46.8126H50.7088C50.7292 46.8126 50.7371 46.8071 50.7371 46.7907C50.7371 46.7688 50.7451 46.7688 51.6967 46.7688H52.6562L52.7277 46.8432C53.0237 47.1505 53.5318 47.0324 53.6566 46.6277C53.7439 46.3422 53.5375 46.0251 53.2267 45.9693C53.0362 45.9343 52.8173 46.0152 52.6993 46.1618L52.6517 46.2219H51.6944H50.7371V46.1946C50.7371 46.1727 50.7315 46.1672 50.7088 46.1672H50.6804V45.9157V45.6641H50.7088H50.7371V45.2561V44.8493L50.812 44.7847C51.4676 44.2193 51.3054 43.1922 50.5035 42.8302C50.3515 42.7602 50.2154 42.7318 50.0283 42.7274C49.9409 42.7252 49.8445 42.7274 49.8128 42.7318ZM50.1939 43.1868C50.4003 43.2382 50.592 43.3902 50.6838 43.5761C50.7508 43.7118 50.7655 43.7741 50.7644 43.9196C50.761 44.1241 50.6895 44.2882 50.5387 44.4336C50.4502 44.519 50.3674 44.5704 50.2517 44.6119C50.1496 44.6491 49.9194 44.659 49.8071 44.6305C49.5848 44.5758 49.4022 44.4336 49.3024 44.2368C49.2445 44.1241 49.2241 44.0366 49.2241 43.9032C49.2241 43.6976 49.2967 43.5313 49.4498 43.3826C49.5269 43.3082 49.5598 43.2852 49.6494 43.2436C49.7084 43.2163 49.7844 43.189 49.8184 43.1824C49.8525 43.1758 49.891 43.1682 49.9035 43.166C49.9466 43.1561 50.1201 43.1693 50.1939 43.1868Z" fill="white"/>
</g>
<defs>
<clipPath id="clip0_260_303">
<rect width="12" height="14" fill="white" transform="translate(44 42)"/>
</clipPath>
</defs>
</svg>
