<svg width="124" height="70" viewBox="0 0 124 70" fill="none" xmlns="http://www.w3.org/2000/svg">
<path fill-rule="evenodd" clip-rule="evenodd" d="M21.8548 44.0094H14.8073L7.30991 20.8426H13.7951L18.2935 36.8119L22.8294 20.8426H29.3146L21.8548 44.0094ZM32.3511 64.702C46.2961 64.702 58.1419 55.8927 62.7153 43.5595C61.6657 43.8594 60.5411 44.0094 59.3415 44.0094H49.8948V20.8426H59.3415C60.5786 20.8426 61.7032 20.9925 62.7903 21.3299C58.2919 8.88434 46.3711 0 32.3511 0C14.4699 0 0 14.4699 0 32.351C0 50.1947 14.4699 64.702 32.3511 64.702ZM64.6646 33.9255C64.4397 35.0126 63.9899 35.9497 63.2776 36.6995C62.228 37.7491 60.9159 38.2739 59.3415 38.2739H56.0052V26.5406H59.3415C60.9534 26.5406 62.2655 27.0654 63.2776 28.1525C63.9899 28.9022 64.4772 29.8019 64.6646 30.9265C64.7021 31.3764 64.7021 31.8637 64.7021 32.3135C64.7021 32.8758 64.7021 33.4006 64.6646 33.9255ZM37.5992 35.0501V38.4614H46.5585V44.0094H31.6763V20.8426H46.4086V26.3906H37.5992V29.6145H45.5839V35.0876H37.5992V35.0501Z" fill="#2C4776"/>
<path fill-rule="evenodd" clip-rule="evenodd" d="M59.3791 20.8426H68.5633H83.2956V26.3906H74.4862V29.6145H82.4709V35.0875H74.4862V38.4988H83.4455V44.0094H70.9625H60.2038V43.9719C63.0153 43.7844 65.3769 42.6973 67.3262 40.673C69.5005 38.4613 70.5876 35.6873 70.5876 32.3885C70.5876 29.1271 69.5005 26.3906 67.3262 24.1414C65.1895 21.9672 62.5654 20.8426 59.3791 20.8426ZM57.3548 38.2739H59.3416C60.916 38.2739 62.2281 37.7491 63.2777 36.6994C64.2898 35.6123 64.8146 34.1878 64.8146 32.426C64.8146 30.6266 64.2898 29.2396 63.2777 28.19C62.2655 27.1028 60.9535 26.578 59.3416 26.578H56.83C56.5301 26.9154 56.2302 27.2903 56.0052 27.6651V36.6994C56.3801 37.2617 56.83 37.7866 57.3548 38.2739ZM96.6409 35.5748L102.639 44.0094H96.4159L93.5295 39.9233L90.643 44.0094H84.4577L90.4556 35.5748L84.6826 27.4777H90.8679L93.5295 31.2264L96.191 27.4777H102.414L96.6409 35.5748Z" fill="#2C4776"/>
<path fill-rule="evenodd" clip-rule="evenodd" d="M76.3117 52.0287C78.038 52.0287 79.4675 52.6603 80.6813 53.9521C81.8951 55.2153 82.4885 56.7943 82.4885 58.6316C82.4885 60.4976 81.8951 62.0766 80.6813 63.3397C79.4945 64.6029 78.038 65.2345 76.3117 65.2345C75.1788 65.2345 74.1808 64.9474 73.2637 64.3732C72.3736 63.7991 71.6723 63.0239 71.1868 61.9904V70.0001H70V52.2584H71.1868V55.1866C71.6723 54.1818 72.3736 53.378 73.2637 52.8038C74.1538 52.3158 75.1788 52.0287 76.3117 52.0287ZM72.6434 62.4785C73.6414 63.5407 74.8282 64.0574 76.2308 64.0574C77.6334 64.0574 78.8202 63.5407 79.8182 62.4785C80.8162 61.4163 81.3017 60.1531 81.3017 58.6603C81.3017 57.1675 80.8162 55.8756 79.8182 54.8421C78.8202 53.7799 77.6334 53.2631 76.2308 53.2631C74.8282 53.2631 73.6144 53.7799 72.6434 54.8421C71.6723 55.8756 71.1868 57.1388 71.1868 58.6603C71.1868 60.1531 71.6723 61.445 72.6434 62.4785ZM86.5345 52.2871V54.7847C87.2627 53.0048 88.5844 52.1148 90.5265 52.1148V53.3206C89.3397 53.3206 88.3956 53.7225 87.6673 54.5263C86.9391 55.3301 86.5614 56.4498 86.5614 57.9139V64.9761H85.3746V52.2871H86.5345ZM97.5664 52.0287C99.3197 52.0287 100.722 52.689 101.801 54.0095C102.907 55.3301 103.447 56.8804 103.447 58.689C103.447 58.7177 103.447 58.8325 103.447 59.0048C103.447 59.177 103.447 59.2632 103.447 59.3206H92.6573C92.7922 60.7273 93.3317 61.9043 94.2488 62.7656C95.1658 63.6268 96.3257 64.0574 97.7013 64.0574C98.6453 64.0574 99.4545 63.8565 100.183 63.4259C100.884 63.0239 101.451 62.4498 101.828 61.7321L102.88 62.3924C102.395 63.2823 101.693 63.9713 100.776 64.4881C99.8591 65.0048 98.8342 65.2632 97.7013 65.2632C95.8671 65.2632 94.3566 64.6603 93.1968 63.4259C92.01 62.1627 91.4436 60.5837 91.4436 58.6603C91.4436 56.7655 92.01 55.1866 93.1698 53.9521C94.3027 52.6603 95.7862 52.0287 97.5664 52.0287ZM97.5664 53.2344C96.2447 53.2344 95.1119 53.6938 94.1948 54.5837C93.2777 55.4737 92.7652 56.6507 92.6573 58.0574H102.233C102.098 56.5646 101.585 55.3875 100.695 54.5263C99.8052 53.6651 98.7802 53.2344 97.5664 53.2344ZM106.575 55.6172C106.575 56.6794 107.439 57.4545 109.138 57.9139C109.623 58.0287 110.001 58.1148 110.217 58.1722C110.46 58.2297 110.783 58.3445 111.242 58.488C111.7 58.6316 112.024 58.7751 112.267 58.9474C112.509 59.1196 112.752 59.3206 113.022 59.579C113.292 59.8373 113.507 60.1244 113.615 60.4689C113.723 60.8134 113.804 61.2153 113.804 61.6459C113.804 62.7082 113.4 63.5694 112.617 64.2584C111.835 64.9187 110.81 65.2632 109.542 65.2632C108.41 65.2632 107.466 65.0048 106.656 64.4881C105.874 63.9713 105.308 63.2823 105.011 62.4211L106.036 61.7895C106.252 62.5072 106.683 63.0527 107.277 63.4259C107.897 63.8278 108.625 64 109.515 64C110.433 64 111.188 63.7991 111.754 63.3684C112.321 62.9378 112.59 62.3637 112.59 61.6172C112.59 60.4689 111.727 59.6938 110.028 59.3206C108.437 58.9187 107.385 58.5455 106.845 58.201C105.847 57.5981 105.362 56.7081 105.362 55.5885C105.362 54.5837 105.739 53.7225 106.494 53.0335C107.277 52.3445 108.248 52 109.435 52C110.379 52 111.188 52.2296 111.916 52.689C112.617 53.1483 113.157 53.7512 113.481 54.5263L112.483 55.1292C112.24 54.5263 111.862 54.0383 111.296 53.7225C110.756 53.378 110.136 53.2057 109.435 53.2057C108.598 53.2057 107.924 53.4354 107.385 53.866C106.845 54.3253 106.575 54.8995 106.575 55.6172ZM116.771 55.6172C116.771 56.6794 117.634 57.4545 119.334 57.9139C119.819 58.0287 120.197 58.1148 120.413 58.1722C120.655 58.2297 120.979 58.3445 121.438 58.488C121.896 58.6316 122.22 58.7751 122.463 58.9474C122.705 59.1196 122.948 59.3206 123.218 59.579C123.487 59.8373 123.703 60.1244 123.811 60.4689C123.919 60.8134 124 61.2153 124 61.6459C124 62.7082 123.595 63.5694 122.813 64.2584C122.031 64.9187 121.006 65.2632 119.738 65.2632C118.605 65.2632 117.661 65.0048 116.852 64.4881C116.07 63.9713 115.503 63.2823 115.207 62.4211L116.232 61.7895C116.448 62.5072 116.879 63.0527 117.473 63.4259C118.093 63.8278 118.821 64 119.711 64C120.628 64 121.384 63.7991 121.95 63.3684C122.516 62.9378 122.786 62.3637 122.786 61.6172C122.786 60.4689 121.923 59.6938 120.224 59.3206C118.632 58.9187 117.58 58.5455 117.041 58.201C116.043 57.5981 115.557 56.7081 115.557 55.5885C115.557 54.5837 115.935 53.7225 116.69 53.0335C117.473 52.3445 118.444 52 119.63 52C120.574 52 121.384 52.2296 122.112 52.689C122.813 53.1483 123.353 53.7512 123.676 54.5263L122.678 55.1292C122.436 54.5263 122.058 54.0383 121.491 53.7225C120.952 53.378 120.332 53.2057 119.63 53.2057C118.794 53.2057 118.12 53.4354 117.58 53.866C117.041 54.3253 116.771 54.8995 116.771 55.6172Z" fill="black"/>
<path fill-rule="evenodd" clip-rule="evenodd" d="M21.8549 44.0094H14.8074L7.31006 20.8426H13.7953L18.2937 36.8119L22.8296 20.8426H29.3148L21.8549 44.0094ZM37.5994 35.05V38.4613H46.5587V44.0094H31.6764V20.8426H46.4087V26.3906H37.5994V29.6145H45.584V35.0875H37.5994V35.05ZM49.895 20.8426H59.3417C62.528 20.8426 65.1896 21.9672 67.3638 24.1789C69.5381 26.3906 70.6252 29.1646 70.6252 32.426C70.6252 35.7248 69.5381 38.4613 67.3638 40.7105C65.2271 42.9222 62.5655 44.0094 59.3417 44.0094H49.895V20.8426ZM56.0053 38.2739H59.3417C60.9161 38.2739 62.2281 37.7491 63.2778 36.6994C64.2899 35.6123 64.8147 34.1878 64.8147 32.426C64.8147 30.6266 64.2899 29.2396 63.2778 28.19C62.2656 27.1028 60.9536 26.578 59.3417 26.578H56.0053V38.2739Z" fill="white"/>
</svg>
