<svg width="16" height="20" viewBox="0 0 16 20" fill="none" xmlns="http://www.w3.org/2000/svg">
<path d="M8.0944 0.833008C3.86 0.833008 0.5 4.34281 0.5 8.5446C0.5 10.8802 1.92229 13.3832 3.48503 15.4196C4.26639 16.4378 5.09273 17.3273 5.85319 17.9863C6.23342 18.3159 6.59657 18.5876 6.9502 18.7936C7.30382 18.9996 7.63628 19.1663 8.0944 19.1663C8.56724 19.1663 8.86384 18.9872 9.19629 18.7806C9.52873 18.574 9.87317 18.3034 10.238 17.9749C10.9675 17.3179 11.7746 16.4315 12.5426 15.4147C14.0787 13.3812 15.5 10.8802 15.5 8.5446C15.5 4.34281 12.1645 0.833008 8.0944 0.833008ZM8.0944 2.49967C11.1993 2.49967 13.8333 5.22471 13.8333 8.5446C13.8333 10.1381 12.6304 12.5301 11.2113 14.4089C10.5017 15.3482 9.74833 16.1718 9.12142 16.7363C8.80796 17.0186 8.52541 17.237 8.31738 17.3662C8.2062 17.4353 8.11412 17.4673 8.06999 17.4834C8.03168 17.4695 7.94035 17.4417 7.78841 17.3532C7.56551 17.2234 7.26981 17.0078 6.94531 16.7266C6.29632 16.1641 5.52805 15.3419 4.80827 14.404C3.36871 12.5281 2.16667 10.1381 2.16667 8.5446C2.16667 5.22471 4.77714 2.49967 8.0944 2.49967Z" fill="#2C4776"/>
</svg>
