<svg width="17" height="18" viewBox="0 0 17 18" fill="none" xmlns="http://www.w3.org/2000/svg">
<path d="M16.6667 3.76647L12.8333 0.549805L11.7583 1.8248L15.5917 5.04147L16.6667 3.76647ZM4.9 1.8248L3.83333 0.549805L0 3.75814L1.075 5.03314L4.9 1.8248ZM8.75 5.66647H7.5V10.6665L11.4583 13.0415L12.0833 12.0165L8.75 10.0415V5.66647ZM8.33333 2.33314C4.19167 2.33314 0.833333 5.69147 0.833333 9.83314C0.833333 13.9748 4.18333 17.3331 8.33333 17.3331C12.475 17.3331 15.8333 13.9748 15.8333 9.83314C15.8333 5.69147 12.475 2.33314 8.33333 2.33314ZM8.33333 15.6665C5.10833 15.6665 2.5 13.0581 2.5 9.83314C2.5 6.60814 5.10833 3.9998 8.33333 3.9998C11.5583 3.9998 14.1667 6.60814 14.1667 9.83314C14.1667 13.0581 11.5583 15.6665 8.33333 15.6665Z" fill="#4DDF19"/>
</svg>
