<svg width="18" height="18" viewBox="0 0 18 18" fill="none" xmlns="http://www.w3.org/2000/svg">
<path d="M17.3333 3.76647L13.5 0.549805L12.425 1.8248L16.2583 5.04147L17.3333 3.76647ZM5.56663 1.8248L4.49996 0.549805L0.666626 3.75814L1.74163 5.03314L5.56663 1.8248ZM9.41663 5.66647H8.16663V10.6665L12.125 13.0415L12.75 12.0165L9.41663 10.0415V5.66647ZM8.99996 2.33314C4.85829 2.33314 1.49996 5.69147 1.49996 9.83314C1.49996 13.9748 4.84996 17.3331 8.99996 17.3331C13.1416 17.3331 16.5 13.9748 16.5 9.83314C16.5 5.69147 13.1416 2.33314 8.99996 2.33314ZM8.99996 15.6665C5.77496 15.6665 3.16663 13.0581 3.16663 9.83314C3.16663 6.60814 5.77496 3.9998 8.99996 3.9998C12.225 3.9998 14.8333 6.60814 14.8333 9.83314C14.8333 13.0581 12.225 15.6665 8.99996 15.6665Z" fill="#2C4776"/>
</svg>
